<?xml version="1.0" encoding="UTF-8" standalone="no"?>
<svg
   width="279.75146pt"
   height="25.984375pt"
   viewBox="0 0 279.75146 25.984375"
   version="1.1"
   id="svg172"
   sodipodi:docname="my-email.svg"
   inkscape:version="1.2 (dc2aedaf03, 2022-05-15)"
   inkscape:export-filename="my-email.svg"
   inkscape:export-xdpi="96"
   inkscape:export-ydpi="96"
   xmlns:inkscape="http://www.inkscape.org/namespaces/inkscape"
   xmlns:sodipodi="http://sodipodi.sourceforge.net/DTD/sodipodi-0.dtd"
   xmlns="http://www.w3.org/2000/svg"
   xmlns:svg="http://www.w3.org/2000/svg">
  <sodipodi:namedview
     id="namedview174"
     pagecolor="#ffffff"
     bordercolor="#666666"
     borderopacity="1.0"
     inkscape:showpageshadow="2"
     inkscape:pageopacity="0.0"
     inkscape:pagecheckerboard="0"
     inkscape:deskcolor="#d1d1d1"
     inkscape:document-units="pt"
     showgrid="false"
     inkscape:zoom="0.79863087"
     inkscape:cx="310.53145"
     inkscape:cy="-339.95681"
     inkscape:window-width="1920"
     inkscape:window-height="1060"
     inkscape:window-x="0"
     inkscape:window-y="20"
     inkscape:window-maximized="1"
     inkscape:current-layer="svg172" />
  <defs
     id="defs164">
    <clipPath
       clipPathUnits="userSpaceOnUse"
       id="clipPath1242">
      <rect
         x="7.7258301e-06"
         y="-2.4185181e-06"
         width="866"
         height="577"
         id="rect1244"
         style="stroke-width:0.999998" />
    </clipPath>
    <clipPath
       clipPathUnits="userSpaceOnUse"
       id="clipPath1246">
      <rect
         x="7.7258301e-06"
         y="-2.4185181e-06"
         width="866"
         height="577"
         id="rect1248"
         style="stroke-width:0.999998" />
    </clipPath>
    <clipPath
       clipPathUnits="userSpaceOnUse"
       id="clipPath1250">
      <rect
         x="7.7258301e-06"
         y="-2.4185181e-06"
         width="866"
         height="577"
         id="rect1252"
         style="stroke-width:0.999998" />
    </clipPath>
    <clipPath
       clipPathUnits="userSpaceOnUse"
       id="clipPath1254">
      <rect
         x="7.7258301e-06"
         y="-2.4185181e-06"
         width="866"
         height="577"
         id="rect1256"
         style="stroke-width:0.999998" />
    </clipPath>
  </defs>
  <g
     fill="#222222"
     fill-opacity="1"
     id="g1040"
     transform="translate(-41.816757,-276.32031)"
     clip-path="url(#clipPath1254)">
    <g
       id="use1034"
       transform="translate(39.363632,297.66406)">
      <path
         d="M 2.453125,0 V -14.5625 H 4.5 l 0.21875,2.09375 h 0.078125 c 0.644531,-0.707031 1.34375,-1.296875 2.09375,-1.765625 0.75,-0.46875 1.5625,-0.703125 2.4375,-0.703125 1.125,0 2,0.246094 2.625,0.734375 0.632813,0.492187 1.097656,1.179687 1.390625,2.0625 0.757812,-0.832031 1.523438,-1.503906 2.296875,-2.015625 0.769531,-0.519531 1.601563,-0.78125 2.5,-0.78125 1.5,0 2.613281,0.484375 3.34375,1.453125 0.726563,0.960937 1.09375,2.375 1.09375,4.25 V 0 h -2.46875 v -8.90625 c 0,-1.375 -0.21875,-2.363281 -0.65625,-2.96875 -0.4375,-0.613281 -1.117187,-0.921875 -2.03125,-0.921875 -1.105469,0 -2.324219,0.746094 -3.65625,2.234375 V 0 h -2.46875 v -8.90625 c 0,-1.375 -0.21875,-2.363281 -0.65625,-2.96875 -0.4375,-0.613281 -1.125,-0.921875 -2.0625,-0.921875 -1.105469,0 -2.324219,0.746094 -3.65625,2.234375 V 0 Z m 0,0"
         id="path1092" />
    </g>
    <g
       id="use1036"
       transform="translate(64.214859,297.66406)">
      <path
         d="m 1.953125,-1.5 c 0,-0.570312 0.171875,-1.03125 0.515625,-1.375 C 2.820312,-3.226562 3.25,-3.40625 3.75,-3.40625 c 0.476562,0 0.890625,0.171875 1.234375,0.515625 0.351563,0.34375 0.53125,0.808594 0.53125,1.390625 0,0.542969 -0.179687,0.992188 -0.53125,1.34375 C 4.640625,0.1875 4.226562,0.359375 3.75,0.359375 3.25,0.359375 2.820312,0.1875 2.46875,-0.15625 2.125,-0.507812 1.953125,-0.957031 1.953125,-1.5 Z m 0,0"
         id="path1096" />
    </g>
    <g
       id="use1038"
       transform="translate(71.668762,297.66406)">
      <path
         d="M 2.453125,0 V -14.5625 H 4.5 l 0.21875,2.625 h 0.078125 c 0.5,-0.914062 1.101563,-1.644531 1.8125,-2.1875 0.707031,-0.539062 1.484375,-0.8125 2.328125,-0.8125 0.570312,0 1.09375,0.105469 1.5625,0.3125 l -0.484375,2.15625 c -0.25,-0.08203 -0.476563,-0.140625 -0.671875,-0.171875 -0.199219,-0.03906 -0.445312,-0.0625 -0.734375,-0.0625 -0.617187,0 -1.261719,0.25 -1.9375,0.75 -0.667969,0.492187 -1.25,1.355469 -1.75,2.59375 V 0 Z m 0,0"
         id="path1100" />
    </g>
  </g>
  <g
     fill="#222222"
     fill-opacity="1"
     id="g1044"
     transform="translate(-41.816757,-276.32031)"
     clip-path="url(#clipPath1250)">
    <g
       id="use1042"
       transform="translate(81.773262,297.66406)">
      <path
         d="m 1.375,-7.265625 c 0,-1.21875 0.179688,-2.300781 0.546875,-3.25 0.375,-0.945313 0.867187,-1.75 1.484375,-2.40625 0.625,-0.65625 1.34375,-1.15625 2.15625,-1.5 0.8125,-0.34375 1.664062,-0.515625 2.5625,-0.515625 0.894531,0 1.75,0.171875 2.5625,0.515625 0.8125,0.34375 1.523438,0.84375 2.140625,1.5 0.625,0.65625 1.117187,1.460937 1.484375,2.40625 0.375,0.949219 0.5625,2.03125 0.5625,3.25 0,1.199219 -0.1875,2.277344 -0.5625,3.234375 -0.367188,0.949219 -0.859375,1.75 -1.484375,2.40625 -0.617187,0.648438 -1.328125,1.140625 -2.140625,1.484375 -0.8125,0.332031 -1.667969,0.5 -2.5625,0.5 -0.898438,0 -1.75,-0.167969 -2.5625,-0.5 C 4.75,-0.484375 4.03125,-0.976562 3.40625,-1.625 2.789062,-2.28125 2.296875,-3.082031 1.921875,-4.03125 1.554688,-4.988281 1.375,-6.066406 1.375,-7.265625 Z m 2.546875,0 c 0,0.84375 0.097656,1.609375 0.296875,2.296875 0.207031,0.679688 0.492188,1.261719 0.859375,1.75 0.375,0.492188 0.820313,0.871094 1.34375,1.140625 0.519531,0.261719 1.085937,0.390625 1.703125,0.390625 0.613281,0 1.179688,-0.128906 1.703125,-0.390625 0.519531,-0.269531 0.96875,-0.648437 1.34375,-1.140625 0.375,-0.488281 0.660156,-1.070312 0.859375,-1.75 0.195312,-0.6875 0.296875,-1.453125 0.296875,-2.296875 0,-0.832031 -0.101563,-1.59375 -0.296875,-2.28125 -0.199219,-0.6875 -0.484375,-1.28125 -0.859375,-1.78125 -0.375,-0.5 -0.824219,-0.882813 -1.34375,-1.15625 -0.523437,-0.28125 -1.089844,-0.421875 -1.703125,-0.421875 -0.617188,0 -1.183594,0.140625 -1.703125,0.421875 -0.523437,0.273437 -0.96875,0.65625 -1.34375,1.15625 -0.367187,0.5 -0.652344,1.09375 -0.859375,1.78125 -0.199219,0.6875 -0.296875,1.449219 -0.296875,2.28125 z m 0,0"
         id="path1104" />
    </g>
  </g>
  <g
     fill="#222222"
     fill-opacity="1"
     id="g1050"
     transform="translate(-41.816757,-276.32031)"
     clip-path="url(#clipPath1246)">
    <g
       id="use1046"
       transform="translate(97.603653,297.66406)">
      <path
         d="m 1.75,-3.78125 c 0,-1.59375 0.710938,-2.8125 2.140625,-3.65625 1.425781,-0.851562 3.695313,-1.453125 6.8125,-1.796875 0,-0.457031 -0.04687,-0.90625 -0.140625,-1.34375 -0.08594,-0.445313 -0.242188,-0.835937 -0.46875,-1.171875 -0.230469,-0.34375 -0.539062,-0.617188 -0.921875,-0.828125 -0.375,-0.21875 -0.867187,-0.328125 -1.46875,-0.328125 -0.867187,0 -1.664063,0.164062 -2.390625,0.484375 -0.71875,0.324219 -1.371094,0.6875 -1.953125,1.09375 L 2.375,-13.046875 c 0.675781,-0.4375 1.503906,-0.859375 2.484375,-1.265625 0.976563,-0.414062 2.054687,-0.625 3.234375,-0.625 1.78125,0 3.066406,0.546875 3.859375,1.640625 0.800781,1.085937 1.203125,2.539063 1.203125,4.359375 V 0 H 11.125 l -0.21875,-1.75 h -0.0625 C 10.144531,-1.164062 9.390625,-0.664062 8.578125,-0.25 7.773438,0.15625 6.925781,0.359375 6.03125,0.359375 4.789062,0.359375 3.765625,0 2.953125,-0.71875 2.148438,-1.4375 1.75,-2.457031 1.75,-3.78125 Z m 2.421875,-0.171875 c 0,0.84375 0.242187,1.445313 0.734375,1.796875 C 5.394531,-1.800781 6,-1.625 6.71875,-1.625 c 0.707031,0 1.367188,-0.160156 1.984375,-0.484375 0.625,-0.332031 1.289063,-0.820313 2,-1.46875 v -4.03125 c -1.21875,0.15625 -2.25,0.34375 -3.09375,0.5625 -0.835937,0.21875 -1.507813,0.480469 -2.015625,0.78125 C 5.082031,-5.960938 4.71875,-5.613281 4.5,-5.21875 4.28125,-4.832031 4.171875,-4.410156 4.171875,-3.953125 Z m 0,0"
         id="path1108" />
    </g>
    <g
       id="use1048"
       transform="translate(112.95078,297.66406)">
      <path
         d="m 1.953125,-1.5 c 0,-0.570312 0.171875,-1.03125 0.515625,-1.375 C 2.820312,-3.226562 3.25,-3.40625 3.75,-3.40625 c 0.476562,0 0.890625,0.171875 1.234375,0.515625 0.351563,0.34375 0.53125,0.808594 0.53125,1.390625 0,0.542969 -0.179687,0.992188 -0.53125,1.34375 C 4.640625,0.1875 4.226562,0.359375 3.75,0.359375 3.25,0.359375 2.820312,0.1875 2.46875,-0.15625 2.125,-0.507812 1.953125,-0.957031 1.953125,-1.5 Z m 0,0"
         id="path1112" />
    </g>
  </g>
  <g
     fill="#222222"
     fill-opacity="1"
     id="g1066"
     transform="translate(-41.816757,-276.32031)"
     clip-path="url(#clipPath1242)">
    <g
       id="use1052"
       transform="translate(119.3503,297.66406)">
      <path
         d="M 0.359375,-14.5625 H 2.90625 l 2.765625,8.265625 c 0.21875,0.71875 0.441406,1.4375 0.671875,2.15625 C 6.570312,-3.421875 6.796875,-2.707031 7.015625,-2 H 7.125 c 0.226562,-0.707031 0.453125,-1.421875 0.671875,-2.140625 0.21875,-0.71875 0.441406,-1.4375 0.671875,-2.15625 l 2.75,-8.265625 h 2.421875 L 8.484375,0 h -2.875 z m 0,0"
         id="path1116" />
    </g>
    <g
       id="use1054"
       transform="translate(133.35017,297.66406)">
      <path
         d="m 2,-19.171875 c 0,-0.46875 0.164062,-0.847656 0.5,-1.140625 0.332031,-0.289062 0.738281,-0.4375 1.21875,-0.4375 0.476562,0 0.882812,0.148438 1.21875,0.4375 0.332031,0.292969 0.5,0.671875 0.5,1.140625 0,0.460937 -0.167969,0.84375 -0.5,1.15625 -0.335938,0.304687 -0.742188,0.453125 -1.21875,0.453125 -0.480469,0 -0.886719,-0.148438 -1.21875,-0.453125 -0.335938,-0.3125 -0.5,-0.695313 -0.5,-1.15625 z M 2.453125,0 v -14.5625 h 2.46875 V 0 Z m 0,0"
         id="path1120" />
    </g>
    <g
       id="use1056"
       transform="translate(140.7162,297.66406)">
      <path
         d="m 2.453125,-2.9375 v -18.40625 h 2.46875 V -2.75 c 0,0.398438 0.066406,0.671875 0.203125,0.828125 0.144531,0.15625 0.304688,0.234375 0.484375,0.234375 0.070313,0 0.144531,0 0.21875,0 0.070313,0 0.179687,-0.019531 0.328125,-0.0625 l 0.3125,1.859375 C 6.3125,0.191406 6.125,0.253906 5.90625,0.296875 c -0.21875,0.039063 -0.5,0.0625 -0.84375,0.0625 -0.9375,0 -1.609375,-0.2773438 -2.015625,-0.828125 -0.398437,-0.5625 -0.59375,-1.382812 -0.59375,-2.46875 z m 0,0"
         id="path1124" />
    </g>
    <g
       id="use1058"
       transform="translate(148.36049,297.66406)">
      <path
         d="m 2.453125,-2.9375 v -18.40625 h 2.46875 V -2.75 c 0,0.398438 0.066406,0.671875 0.203125,0.828125 0.144531,0.15625 0.304688,0.234375 0.484375,0.234375 0.070313,0 0.144531,0 0.21875,0 0.070313,0 0.179687,-0.019531 0.328125,-0.0625 l 0.3125,1.859375 C 6.3125,0.191406 6.125,0.253906 5.90625,0.296875 c -0.21875,0.039063 -0.5,0.0625 -0.84375,0.0625 -0.9375,0 -1.609375,-0.2773438 -2.015625,-0.828125 -0.398437,-0.5625 -0.59375,-1.382812 -0.59375,-2.46875 z m 0,0"
         id="path1128" />
    </g>
    <g
       id="use1060"
       transform="translate(156.00476,297.66406)">
      <path
         d="m 1.375,-7.265625 c 0,-1.195313 0.179688,-2.269531 0.546875,-3.21875 0.375,-0.945313 0.863281,-1.75 1.46875,-2.40625 0.613281,-0.65625 1.3125,-1.160156 2.09375,-1.515625 0.78125,-0.351562 1.59375,-0.53125 2.4375,-0.53125 0.914063,0 1.738281,0.164062 2.46875,0.484375 0.726563,0.324219 1.335937,0.789063 1.828125,1.390625 0.488281,0.59375 0.863281,1.3125 1.125,2.15625 0.257812,0.84375 0.390625,1.78125 0.390625,2.8125 0,0.53125 -0.03125,0.980469 -0.09375,1.34375 H 3.8125 c 0.09375,1.585938 0.578125,2.835938 1.453125,3.75 0.875,0.917969 2.007813,1.375 3.40625,1.375 0.695313,0 1.335937,-0.101562 1.921875,-0.3125 0.59375,-0.207031 1.160156,-0.476562 1.703125,-0.8125 l 0.859375,1.609375 c -0.636719,0.398437 -1.34375,0.746094 -2.125,1.046875 -0.773438,0.300781 -1.664062,0.453125 -2.671875,0.453125 -0.980469,0 -1.898437,-0.171875 -2.75,-0.515625 -0.84375,-0.351562 -1.585937,-0.851562 -2.21875,-1.5 C 2.765625,-2.3125 2.269531,-3.109375 1.90625,-4.046875 1.550781,-4.992188 1.375,-6.066406 1.375,-7.265625 Z m 2.40625,-1.09375 h 7.796875 c 0,-1.5 -0.320313,-2.644531 -0.953125,-3.4375 -0.625,-0.789063 -1.507812,-1.1875 -2.640625,-1.1875 -0.523437,0 -1.023437,0.105469 -1.5,0.3125 -0.46875,0.210937 -0.898437,0.511719 -1.28125,0.90625 -0.375,0.386719 -0.6875,0.867187 -0.9375,1.4375 -0.25,0.574219 -0.414063,1.230469 -0.484375,1.96875 z m 0,0"
         id="path1132" />
    </g>
    <g
       id="use1062"
       transform="translate(170.86864,297.66406)">
      <path
         d="M 0.828125,-1.65625 2.0625,-3.296875 c 0.644531,0.523437 1.300781,0.945313 1.96875,1.265625 0.664062,0.324219 1.441406,0.484375 2.328125,0.484375 0.945313,0 1.660156,-0.222656 2.140625,-0.671875 0.488281,-0.445312 0.734375,-0.984375 0.734375,-1.609375 0,-0.382813 -0.101563,-0.710937 -0.296875,-0.984375 C 8.738281,-5.09375 8.484375,-5.335938 8.171875,-5.546875 7.859375,-5.765625 7.5,-5.953125 7.09375,-6.109375 6.695312,-6.273438 6.300781,-6.441406 5.90625,-6.609375 5.382812,-6.773438 4.863281,-6.972656 4.34375,-7.203125 3.832031,-7.429688 3.367188,-7.710938 2.953125,-8.046875 2.546875,-8.378906 2.207031,-8.765625 1.9375,-9.203125 c -0.261719,-0.445313 -0.390625,-0.976563 -0.390625,-1.59375 0,-0.570313 0.113281,-1.113281 0.34375,-1.625 0.238281,-0.507813 0.570313,-0.945313 1,-1.3125 0.4375,-0.375 0.960937,-0.664063 1.578125,-0.875 0.625,-0.21875 1.328125,-0.328125 2.109375,-0.328125 0.914063,0 1.753906,0.164062 2.515625,0.484375 0.769531,0.324219 1.4375,0.714844 2,1.171875 l -1.171875,1.546875 c -0.492187,-0.375 -1.011719,-0.679687 -1.5625,-0.921875 -0.542969,-0.238281 -1.125,-0.359375 -1.75,-0.359375 -0.917969,0 -1.59375,0.214844 -2.03125,0.640625 -0.4375,0.417969 -0.65625,0.90625 -0.65625,1.46875 0,0.34375 0.085937,0.640625 0.265625,0.890625 0.1875,0.25 0.429688,0.46875 0.734375,0.65625 0.300781,0.179687 0.644531,0.34375 1.03125,0.5 0.382813,0.148437 0.785156,0.304687 1.203125,0.46875 0.519531,0.199219 1.046875,0.40625 1.578125,0.625 0.53125,0.21875 1.003906,0.496094 1.421875,0.828125 0.425781,0.335938 0.773438,0.742188 1.046875,1.21875 0.269531,0.480469 0.40625,1.058594 0.40625,1.734375 0,0.59375 -0.121094,1.15625 -0.359375,1.6875 -0.230469,0.523437 -0.570312,0.980469 -1.015625,1.375 C 9.785156,-0.535156 9.222656,-0.226562 8.546875,0 7.878906,0.238281 7.117188,0.359375 6.265625,0.359375 c -1.03125,0 -2.023437,-0.1875 -2.96875,-0.5625 -0.9375,-0.382813 -1.761719,-0.867187 -2.46875,-1.453125 z m 0,0"
         id="path1136" />
    </g>
    <g
       id="use1064"
       transform="translate(183.43336,297.66406)">
      <path
         d="m 1.375,-7.265625 c 0,-1.21875 0.1875,-2.300781 0.5625,-3.25 0.382812,-0.945313 0.894531,-1.75 1.53125,-2.40625 0.644531,-0.65625 1.390625,-1.15625 2.234375,-1.5 0.851563,-0.34375 1.75,-0.515625 2.6875,-0.515625 0.957031,0 1.78125,0.179688 2.46875,0.53125 0.695313,0.355469 1.296875,0.761719 1.796875,1.21875 l -1.234375,1.578125 c -0.4375,-0.382813 -0.890625,-0.695313 -1.359375,-0.9375 -0.46875,-0.238281 -0.996094,-0.359375 -1.578125,-0.359375 -0.65625,0 -1.265625,0.140625 -1.828125,0.421875 -0.5625,0.273437 -1.046875,0.65625 -1.453125,1.15625 -0.398437,0.5 -0.710937,1.09375 -0.9375,1.78125 -0.230469,0.6875 -0.34375,1.449219 -0.34375,2.28125 0,0.84375 0.109375,1.609375 0.328125,2.296875 0.21875,0.679688 0.519531,1.261719 0.90625,1.75 0.394531,0.492188 0.875,0.871094 1.4375,1.140625 0.5625,0.261719 1.171875,0.390625 1.828125,0.390625 0.695313,0 1.332031,-0.140625 1.90625,-0.421875 0.570313,-0.289063 1.078125,-0.632813 1.515625,-1.03125 l 1.109375,1.625 c -0.65625,0.574219 -1.390625,1.03125 -2.203125,1.375 -0.8125,0.332031 -1.65625,0.5 -2.53125,0.5 -0.960938,0 -1.859375,-0.167969 -2.703125,-0.5 C 4.679688,-0.484375 3.957031,-0.976562 3.34375,-1.625 2.738281,-2.28125 2.257812,-3.082031 1.90625,-4.03125 1.550781,-4.988281 1.375,-6.066406 1.375,-7.265625 Z m 0,0"
         id="path1140" />
    </g>
  </g>
  <g
     fill="#222222"
     fill-opacity="1"
     id="g1076"
     transform="translate(-41.816757,-276.32031)">
    <g
       id="use1068"
       transform="translate(196.80353,297.66406)">
      <path
         d="m 1.75,-3.78125 c 0,-1.59375 0.710938,-2.8125 2.140625,-3.65625 1.425781,-0.851562 3.695313,-1.453125 6.8125,-1.796875 0,-0.457031 -0.04687,-0.90625 -0.140625,-1.34375 -0.08594,-0.445313 -0.242188,-0.835937 -0.46875,-1.171875 -0.230469,-0.34375 -0.539062,-0.617188 -0.921875,-0.828125 -0.375,-0.21875 -0.867187,-0.328125 -1.46875,-0.328125 -0.867187,0 -1.664063,0.164062 -2.390625,0.484375 -0.71875,0.324219 -1.371094,0.6875 -1.953125,1.09375 L 2.375,-13.046875 c 0.675781,-0.4375 1.503906,-0.859375 2.484375,-1.265625 0.976563,-0.414062 2.054687,-0.625 3.234375,-0.625 1.78125,0 3.066406,0.546875 3.859375,1.640625 0.800781,1.085937 1.203125,2.539063 1.203125,4.359375 V 0 H 11.125 l -0.21875,-1.75 h -0.0625 C 10.144531,-1.164062 9.390625,-0.664062 8.578125,-0.25 7.773438,0.15625 6.925781,0.359375 6.03125,0.359375 4.789062,0.359375 3.765625,0 2.953125,-0.71875 2.148438,-1.4375 1.75,-2.457031 1.75,-3.78125 Z m 2.421875,-0.171875 c 0,0.84375 0.242187,1.445313 0.734375,1.796875 C 5.394531,-1.800781 6,-1.625 6.71875,-1.625 c 0.707031,0 1.367188,-0.160156 1.984375,-0.484375 0.625,-0.332031 1.289063,-0.820313 2,-1.46875 v -4.03125 c -1.21875,0.15625 -2.25,0.34375 -3.09375,0.5625 -0.835937,0.21875 -1.507813,0.480469 -2.015625,0.78125 C 5.082031,-5.960938 4.71875,-5.613281 4.5,-5.21875 4.28125,-4.832031 4.171875,-4.410156 4.171875,-3.953125 Z m 0,0"
         id="path1144" />
    </g>
    <g
       id="use1070"
       transform="translate(212.15067,297.66406)">
      <path
         d="M 0.828125,-1.65625 2.0625,-3.296875 c 0.644531,0.523437 1.300781,0.945313 1.96875,1.265625 0.664062,0.324219 1.441406,0.484375 2.328125,0.484375 0.945313,0 1.660156,-0.222656 2.140625,-0.671875 0.488281,-0.445312 0.734375,-0.984375 0.734375,-1.609375 0,-0.382813 -0.101563,-0.710937 -0.296875,-0.984375 C 8.738281,-5.09375 8.484375,-5.335938 8.171875,-5.546875 7.859375,-5.765625 7.5,-5.953125 7.09375,-6.109375 6.695312,-6.273438 6.300781,-6.441406 5.90625,-6.609375 5.382812,-6.773438 4.863281,-6.972656 4.34375,-7.203125 3.832031,-7.429688 3.367188,-7.710938 2.953125,-8.046875 2.546875,-8.378906 2.207031,-8.765625 1.9375,-9.203125 c -0.261719,-0.445313 -0.390625,-0.976563 -0.390625,-1.59375 0,-0.570313 0.113281,-1.113281 0.34375,-1.625 0.238281,-0.507813 0.570313,-0.945313 1,-1.3125 0.4375,-0.375 0.960937,-0.664063 1.578125,-0.875 0.625,-0.21875 1.328125,-0.328125 2.109375,-0.328125 0.914063,0 1.753906,0.164062 2.515625,0.484375 0.769531,0.324219 1.4375,0.714844 2,1.171875 l -1.171875,1.546875 c -0.492187,-0.375 -1.011719,-0.679687 -1.5625,-0.921875 -0.542969,-0.238281 -1.125,-0.359375 -1.75,-0.359375 -0.917969,0 -1.59375,0.214844 -2.03125,0.640625 -0.4375,0.417969 -0.65625,0.90625 -0.65625,1.46875 0,0.34375 0.085937,0.640625 0.265625,0.890625 0.1875,0.25 0.429688,0.46875 0.734375,0.65625 0.300781,0.179687 0.644531,0.34375 1.03125,0.5 0.382813,0.148437 0.785156,0.304687 1.203125,0.46875 0.519531,0.199219 1.046875,0.40625 1.578125,0.625 0.53125,0.21875 1.003906,0.496094 1.421875,0.828125 0.425781,0.335938 0.773438,0.742188 1.046875,1.21875 0.269531,0.480469 0.40625,1.058594 0.40625,1.734375 0,0.59375 -0.121094,1.15625 -0.359375,1.6875 -0.230469,0.523437 -0.570312,0.980469 -1.015625,1.375 C 9.785156,-0.535156 9.222656,-0.226562 8.546875,0 7.878906,0.238281 7.117188,0.359375 6.265625,0.359375 c -1.03125,0 -2.023437,-0.1875 -2.96875,-0.5625 -0.9375,-0.382813 -1.761719,-0.867187 -2.46875,-1.453125 z m 0,0"
         id="path1148" />
    </g>
    <g
       id="use1072"
       transform="translate(224.71539,297.66406)">
      <path
         d="m 1.515625,-6.09375 c 0,-2 0.335937,-3.816406 1.015625,-5.453125 0.675781,-1.632813 1.585938,-3.03125 2.734375,-4.1875 1.144531,-1.164063 2.46875,-2.0625 3.96875,-2.6875 1.507813,-0.632813 3.109375,-0.953125 4.796875,-0.953125 1.519531,0 2.882812,0.242188 4.09375,0.71875 1.207031,0.480469 2.234375,1.15625 3.078125,2.03125 0.851563,0.867188 1.507813,1.90625 1.96875,3.125 0.457031,1.21875 0.6875,2.574219 0.6875,4.0625 0,1.3125 -0.1875,2.464844 -0.5625,3.453125 -0.367187,0.992187 -0.835937,1.824219 -1.40625,2.5 -0.574219,0.667969 -1.21875,1.171875 -1.9375,1.515625 -0.710937,0.335938 -1.402344,0.5 -2.078125,0.5 -0.824219,0 -1.523438,-0.1875 -2.09375,-0.5625 -0.5625,-0.382812 -0.898438,-0.957031 -1,-1.71875 h -0.04687 c -0.5,0.574219 -1.074219,1.058594 -1.71875,1.453125 -0.648437,0.386719 -1.296875,0.578125 -1.953125,0.578125 -1.011719,0 -1.867188,-0.351562 -2.5625,-1.0625 C 7.8125,-3.5 7.46875,-4.550781 7.46875,-5.9375 c 0,-0.800781 0.128906,-1.613281 0.390625,-2.4375 0.269531,-0.832031 0.65625,-1.582031 1.15625,-2.25 0.507813,-0.675781 1.117187,-1.222656 1.828125,-1.640625 0.707031,-0.425781 1.5,-0.640625 2.375,-0.640625 0.519531,0 0.976562,0.121094 1.375,0.359375 0.40625,0.230469 0.75,0.59375 1.03125,1.09375 h 0.0625 l 0.328125,-1.203125 h 1.640625 l -1.171875,6 c -0.59375,2.34375 -0.05469,3.515625 1.625,3.515625 0.476563,0 0.953125,-0.140625 1.421875,-0.421875 C 20,-3.84375 20.425781,-4.25 20.8125,-4.78125 c 0.394531,-0.53125 0.710938,-1.179688 0.953125,-1.953125 0.238281,-0.769531 0.359375,-1.644531 0.359375,-2.625 0,-1.195313 -0.179688,-2.3125 -0.53125,-3.34375 -0.34375,-1.03125 -0.871094,-1.910156 -1.578125,-2.640625 -0.699219,-0.738281 -1.570313,-1.316406 -2.609375,-1.734375 -1.03125,-0.425781 -2.226562,-0.640625 -3.578125,-0.640625 -1.34375,0 -2.648437,0.277344 -3.90625,0.828125 -1.261719,0.542969 -2.382813,1.3125 -3.359375,2.3125 -0.980469,1 -1.765625,2.214844 -2.359375,3.640625 -0.585937,1.417969 -0.875,3.007812 -0.875,4.765625 0,1.460937 0.222656,2.757813 0.671875,3.890625 0.445312,1.136719 1.070312,2.09375 1.875,2.875 C 6.675781,1.375 7.617188,1.96875 8.703125,2.375 9.796875,2.789062 10.984375,3 12.265625,3 13.179688,3 14.050781,2.875 14.875,2.625 15.695312,2.375 16.441406,2.050781 17.109375,1.65625 L 17.78125,3.125 C 16.070312,4.132812 14.171875,4.640625 12.078125,4.640625 10.597656,4.640625 9.21875,4.410156 7.9375,3.953125 6.664062,3.492188 5.550781,2.8125 4.59375,1.90625 3.644531,1 2.894531,-0.125 2.34375,-1.46875 1.789062,-2.8125 1.515625,-4.351562 1.515625,-6.09375 Z m 7.921875,0 c 0,0.960938 0.195312,1.652344 0.59375,2.078125 0.40625,0.429687 0.90625,0.640625 1.5,0.640625 0.425781,0 0.863281,-0.140625 1.3125,-0.421875 0.457031,-0.289063 0.941406,-0.742187 1.453125,-1.359375 l 0.875,-4.765625 c -0.28125,-0.457031 -0.574219,-0.78125 -0.875,-0.96875 C 13.992188,-11.085938 13.644531,-11.1875 13.25,-11.1875 c -0.59375,0 -1.125,0.164062 -1.59375,0.484375 -0.46875,0.324219 -0.871094,0.734375 -1.203125,1.234375 -0.335937,0.5 -0.589844,1.054688 -0.765625,1.65625 -0.167969,0.59375 -0.25,1.167969 -0.25,1.71875 z m 0,0"
         id="path1152" />
    </g>
    <g
       id="use1074"
       transform="translate(250.10844,297.66406)">
      <path
         d="m 0.71875,-12.5625 v -1.859375 L 3,-14.5625 3.296875,-18.65625 H 5.375 v 4.09375 h 3.921875 v 2 H 5.375 v 8.09375 c 0,0.898438 0.160156,1.589844 0.484375,2.078125 0.332031,0.492187 0.914063,0.734375 1.75,0.734375 0.269531,0 0.550781,-0.035156 0.84375,-0.109375 0.300781,-0.082031 0.570313,-0.171875 0.8125,-0.265625 L 9.75,-0.171875 C 9.351562,-0.0351562 8.914062,0.0820312 8.4375,0.1875 7.96875,0.300781 7.503906,0.359375 7.046875,0.359375 6.265625,0.359375 5.609375,0.238281 5.078125,0 4.554688,-0.238281 4.128906,-0.566406 3.796875,-0.984375 3.460938,-1.410156 3.226562,-1.921875 3.09375,-2.515625 2.957031,-3.109375 2.890625,-3.769531 2.890625,-4.5 v -8.0625 z m 0,0"
         id="path1156" />
    </g>
  </g>
  <g
     fill="#222222"
     fill-opacity="1"
     id="g1088"
     transform="translate(-41.816757,-276.32031)">
    <g
       id="use1078"
       transform="translate(260.0665,297.66406)">
      <path
         d="m 2.25,-5.34375 v -9.21875 h 2.5 v 8.890625 c 0,1.375 0.210938,2.371094 0.640625,2.984375 0.425781,0.617188 1.117187,0.921875 2.078125,0.921875 0.757812,0 1.425781,-0.191406 2,-0.578125 0.582031,-0.394531 1.222656,-1.023438 1.921875,-1.890625 V -14.5625 H 13.84375 V 0 H 11.8125 L 11.609375,-2.28125 H 11.5 c -0.679688,0.804688 -1.390625,1.445312 -2.140625,1.921875 -0.742187,0.476563 -1.621094,0.71875 -2.640625,0.71875 -1.5625,0 -2.699219,-0.476563 -3.40625,-1.4375 C 2.601562,-2.035156 2.25,-3.457031 2.25,-5.34375 Z m 0,0"
         id="path1160" />
    </g>
    <g
       id="use1080"
       transform="translate(276.38016,297.66406)">
      <path
         d="m 1.375,-7.265625 c 0,-1.195313 0.179688,-2.269531 0.546875,-3.21875 0.375,-0.945313 0.863281,-1.75 1.46875,-2.40625 0.613281,-0.65625 1.3125,-1.160156 2.09375,-1.515625 0.78125,-0.351562 1.59375,-0.53125 2.4375,-0.53125 0.914063,0 1.738281,0.164062 2.46875,0.484375 0.726563,0.324219 1.335937,0.789063 1.828125,1.390625 0.488281,0.59375 0.863281,1.3125 1.125,2.15625 0.257812,0.84375 0.390625,1.78125 0.390625,2.8125 0,0.53125 -0.03125,0.980469 -0.09375,1.34375 H 3.8125 c 0.09375,1.585938 0.578125,2.835938 1.453125,3.75 0.875,0.917969 2.007813,1.375 3.40625,1.375 0.695313,0 1.335937,-0.101562 1.921875,-0.3125 0.59375,-0.207031 1.160156,-0.476562 1.703125,-0.8125 l 0.859375,1.609375 c -0.636719,0.398437 -1.34375,0.746094 -2.125,1.046875 -0.773438,0.300781 -1.664062,0.453125 -2.671875,0.453125 -0.980469,0 -1.898437,-0.171875 -2.75,-0.515625 -0.84375,-0.351562 -1.585937,-0.851562 -2.21875,-1.5 C 2.765625,-2.3125 2.269531,-3.109375 1.90625,-4.046875 1.550781,-4.992188 1.375,-6.066406 1.375,-7.265625 Z m 2.40625,-1.09375 h 7.796875 c 0,-1.5 -0.320313,-2.644531 -0.953125,-3.4375 -0.625,-0.789063 -1.507812,-1.1875 -2.640625,-1.1875 -0.523437,0 -1.023437,0.105469 -1.5,0.3125 -0.46875,0.210937 -0.898437,0.511719 -1.28125,0.90625 -0.375,0.386719 -0.6875,0.867187 -0.9375,1.4375 -0.25,0.574219 -0.414063,1.230469 -0.484375,1.96875 z m 0,0"
         id="path1164" />
    </g>
    <g
       id="use1082"
       transform="translate(291.24402,297.66406)">
      <path
         d="m 1.953125,-1.5 c 0,-0.570312 0.171875,-1.03125 0.515625,-1.375 C 2.820312,-3.226562 3.25,-3.40625 3.75,-3.40625 c 0.476562,0 0.890625,0.171875 1.234375,0.515625 0.351563,0.34375 0.53125,0.808594 0.53125,1.390625 0,0.542969 -0.179687,0.992188 -0.53125,1.34375 C 4.640625,0.1875 4.226562,0.359375 3.75,0.359375 3.25,0.359375 2.820312,0.1875 2.46875,-0.15625 2.125,-0.507812 1.953125,-0.957031 1.953125,-1.5 Z m 0,0"
         id="path1168" />
    </g>
    <g
       id="use1084"
       transform="translate(298.69794,297.66406)">
      <path
         d="M 2.453125,0 V -14.5625 H 4.5 l 0.21875,2.09375 H 4.796875 C 5.503906,-13.175781 6.238281,-13.765625 7,-14.234375 c 0.769531,-0.46875 1.664062,-0.703125 2.6875,-0.703125 1.539062,0 2.664062,0.484375 3.375,1.453125 0.707031,0.960937 1.0625,2.375 1.0625,4.25 V 0 h -2.453125 v -8.90625 c 0,-1.375 -0.226563,-2.363281 -0.671875,-2.96875 -0.4375,-0.613281 -1.136719,-0.921875 -2.09375,-0.921875 -0.761719,0 -1.433594,0.1875 -2.015625,0.5625 -0.574219,0.375 -1.230469,0.933594 -1.96875,1.671875 V 0 Z m 0,0"
         id="path1172" />
    </g>
    <g
       id="use1086"
       transform="translate(315.09946,297.66406)">
      <path
         d="m 2.453125,-2.9375 v -18.40625 h 2.46875 V -2.75 c 0,0.398438 0.066406,0.671875 0.203125,0.828125 0.144531,0.15625 0.304688,0.234375 0.484375,0.234375 0.070313,0 0.144531,0 0.21875,0 0.070313,0 0.179687,-0.019531 0.328125,-0.0625 l 0.3125,1.859375 C 6.3125,0.191406 6.125,0.253906 5.90625,0.296875 c -0.21875,0.039063 -0.5,0.0625 -0.84375,0.0625 -0.9375,0 -1.609375,-0.2773438 -2.015625,-0.828125 -0.398437,-0.5625 -0.59375,-1.382812 -0.59375,-2.46875 z m 0,0"
         id="path1176" />
    </g>
  </g>
</svg>
