<?xml version="1.0" encoding="UTF-8" standalone="no"?>
<svg
   width="244.89864pt"
   height="21.703125pt"
   viewBox="0 0 244.89864 21.703125"
   version="1.1"
   id="svg189"
   sodipodi:docname="my-name.svg"
   inkscape:version="1.2 (dc2aedaf03, 2022-05-15)"
   xmlns:inkscape="http://www.inkscape.org/namespaces/inkscape"
   xmlns:sodipodi="http://sodipodi.sourceforge.net/DTD/sodipodi-0.dtd"
   xmlns="http://www.w3.org/2000/svg"
   xmlns:svg="http://www.w3.org/2000/svg">
  <sodipodi:namedview
     id="namedview191"
     pagecolor="#ffffff"
     bordercolor="#666666"
     borderopacity="1.0"
     inkscape:showpageshadow="2"
     inkscape:pageopacity="0.0"
     inkscape:pagecheckerboard="0"
     inkscape:deskcolor="#d1d1d1"
     inkscape:document-units="pt"
     showgrid="false"
     inkscape:zoom="1.2188059"
     inkscape:cx="415.98093"
     inkscape:cy="107.89249"
     inkscape:window-width="1920"
     inkscape:window-height="1060"
     inkscape:window-x="0"
     inkscape:window-y="20"
     inkscape:window-maximized="1"
     inkscape:current-layer="svg189" />
  <defs
     id="defs181">
    <clipPath
       clipPathUnits="userSpaceOnUse"
       id="clipPath1386">
      <rect
         x="-8.1848145e-07"
         y="4.3084717e-07"
         width="866"
         height="577"
         id="rect1388"
         style="stroke-width:0.999998" />
    </clipPath>
    <clipPath
       clipPathUnits="userSpaceOnUse"
       id="clipPath1408">
      <rect
         x="-8.1848145e-07"
         y="4.3084717e-07"
         width="866"
         height="577"
         id="rect1410"
         style="stroke-width:0.999998" />
    </clipPath>
    <clipPath
       clipPathUnits="userSpaceOnUse"
       id="clipPath787">
      <path
         clip-rule="nonzero"
         d="m -608.19724,-309.95348 h 865.92191 v 576.58203 h -865.92191 z m 0,0"
         id="path789"
         style="stroke-width:0.999998" />
    </clipPath>
    <clipPath
       clipPathUnits="userSpaceOnUse"
       id="clipPath791">
      <path
         clip-rule="nonzero"
         d="m -592.85014,-309.95348 h 865.92191 v 576.58203 h -865.92191 z m 0,0"
         id="path793"
         style="stroke-width:0.999998" />
    </clipPath>
    <clipPath
       clipPathUnits="userSpaceOnUse"
       id="clipPath795">
      <path
         clip-rule="nonzero"
         d="m -579.47996,-309.95348 h 865.92191 v 576.58203 h -865.92191 z m 0,0"
         id="path797"
         style="stroke-width:0.999998" />
    </clipPath>
    <clipPath
       clipPathUnits="userSpaceOnUse"
       id="clipPath799">
      <path
         clip-rule="nonzero"
         d="m -566.91523,-309.95348 h 865.92191 v 576.58203 h -865.92191 z m 0,0"
         id="path801"
         style="stroke-width:0.999998" />
    </clipPath>
    <clipPath
       clipPathUnits="userSpaceOnUse"
       id="clipPath803">
      <path
         clip-rule="nonzero"
         d="m -552.05137,-309.95348 h 865.92191 v 576.58203 h -865.92191 z m 0,0"
         id="path805"
         style="stroke-width:0.999998" />
    </clipPath>
    <clipPath
       clipPathUnits="userSpaceOnUse"
       id="clipPath807">
      <path
         clip-rule="nonzero"
         d="m -544.40708,-309.95348 h 865.92191 v 576.58203 h -865.92191 z m 0,0"
         id="path809"
         style="stroke-width:0.999998" />
    </clipPath>
    <clipPath
       clipPathUnits="userSpaceOnUse"
       id="clipPath811">
      <path
         clip-rule="nonzero"
         d="M -536.7628,-309.95348 H 329.15911 V 266.62855 H -536.7628 Z m 0,0"
         id="path813"
         style="stroke-width:0.999998" />
    </clipPath>
    <clipPath
       clipPathUnits="userSpaceOnUse"
       id="clipPath815">
      <path
         clip-rule="nonzero"
         d="m -529.39677,-309.95348 h 865.92191 v 576.58203 h -865.92191 z m 0,0"
         id="path817"
         style="stroke-width:0.999998" />
    </clipPath>
    <clipPath
       clipPathUnits="userSpaceOnUse"
       id="clipPath819">
      <path
         clip-rule="nonzero"
         d="m -514.04963,-309.95348 h 865.92191 v 576.58203 h -865.92191 z m 0,0"
         id="path821"
         style="stroke-width:0.999998" />
    </clipPath>
    <clipPath
       clipPathUnits="userSpaceOnUse"
       id="clipPath823">
      <path
         clip-rule="nonzero"
         d="m -492.65447,-309.95348 h 865.92191 v 576.58203 h -865.92191 z m 0,0"
         id="path825"
         style="stroke-width:0.999998" />
    </clipPath>
    <clipPath
       clipPathUnits="userSpaceOnUse"
       id="clipPath827">
      <path
         clip-rule="nonzero"
         d="m -476.82404,-309.95348 h 865.92191 v 576.58203 h -865.92191 z m 0,0"
         id="path829"
         style="stroke-width:0.999998" />
    </clipPath>
    <clipPath
       clipPathUnits="userSpaceOnUse"
       id="clipPath831">
      <path
         clip-rule="nonzero"
         d="m -459.70497,-309.95348 h 865.92191 v 576.58203 h -865.92191 z m 0,0"
         id="path833"
         style="stroke-width:0.999998" />
    </clipPath>
    <clipPath
       clipPathUnits="userSpaceOnUse"
       id="clipPath835">
      <path
         clip-rule="nonzero"
         d="m -437.25542,-309.95348 h 865.92191 v 576.58203 h -865.92191 z m 0,0"
         id="path837"
         style="stroke-width:0.999998" />
    </clipPath>
    <clipPath
       clipPathUnits="userSpaceOnUse"
       id="clipPath839">
      <path
         clip-rule="nonzero"
         d="m -429.88938,-309.95348 h 865.92191 v 576.58203 h -865.92191 z m 0,0"
         id="path841"
         style="stroke-width:0.999998" />
    </clipPath>
    <clipPath
       clipPathUnits="userSpaceOnUse"
       id="clipPath843">
      <path
         clip-rule="nonzero"
         d="m -419.75556,-309.95348 h 865.92191 v 576.58203 h -865.92191 z m 0,0"
         id="path845"
         style="stroke-width:0.999998" />
    </clipPath>
    <clipPath
       clipPathUnits="userSpaceOnUse"
       id="clipPath847">
      <path
         clip-rule="nonzero"
         d="M -409.3582,-309.95348 H 456.56371 V 266.62855 H -409.3582 Z m 0,0"
         id="path849"
         style="stroke-width:0.999998" />
    </clipPath>
    <clipPath
       clipPathUnits="userSpaceOnUse"
       id="clipPath851">
      <path
         clip-rule="nonzero"
         d="m -394.01107,-309.95348 h 865.92191 v 576.58203 h -865.92191 z m 0,0"
         id="path853"
         style="stroke-width:0.999998" />
    </clipPath>
    <clipPath
       clipPathUnits="userSpaceOnUse"
       id="clipPath855">
      <path
         clip-rule="nonzero"
         d="m -372.22048,-309.95348 h 865.92191 v 576.58203 h -865.92191 z m 0,0"
         id="path857"
         style="stroke-width:0.999998" />
    </clipPath>
    <clipPath
       clipPathUnits="userSpaceOnUse"
       id="clipPath859">
      <path
         clip-rule="nonzero"
         d="M -63.497115,32.697582 H 802.42479 V 609.27961 H -63.497115 Z m 0,0"
         id="path861"
         style="stroke-width:0.999998" />
    </clipPath>
    <clipPath
       clipPathUnits="userSpaceOnUse"
       id="clipPath863">
      <path
         clip-rule="nonzero"
         d="M -63.497115,32.697582 H 802.42479 V 609.27961 H -63.497115 Z m 0,0"
         id="path865"
         style="stroke-width:0.999998" />
    </clipPath>
  </defs>
  <g
     id="use1157"
     transform="translate(-2.6875,21.34375)"
     style="fill:#222222;fill-opacity:1"
     clip-path="url(#clipPath855)">
    <path
       d="M 2.6875,0 V -19.65625 H 5.640625 L 9.4375,-9.125 10.875,-5.09375 h 0.140625 l 1.375,-4.03125 3.765625,-10.53125 h 2.953125 V 0 h -2.375 v -10.8125 c 0,-0.882812 0.03125,-1.859375 0.09375,-2.921875 0.07031,-1.0625 0.148437,-2.03125 0.234375,-2.90625 h -0.125 l -1.578125,4.375 -3.78125,10.296875 H 10.15625 l -3.796875,-10.296875 -1.5625,-4.375 h -0.125 c 0.0625,0.875 0.128906,1.84375 0.203125,2.90625 C 4.957031,-12.671875 5,-11.695312 5,-10.8125 V 0 Z m 0,0"
       id="path1233" />
  </g>
  <g
     id="use1159"
     transform="translate(19.10309,21.34375)"
     style="fill:#222222;fill-opacity:1"
     clip-path="url(#clipPath851)">
    <path
       d="m 1.75,-3.78125 c 0,-1.59375 0.710938,-2.8125 2.140625,-3.65625 1.425781,-0.851562 3.695313,-1.453125 6.8125,-1.796875 0,-0.457031 -0.04687,-0.90625 -0.140625,-1.34375 -0.08594,-0.445313 -0.242188,-0.835937 -0.46875,-1.171875 -0.230469,-0.34375 -0.539062,-0.617188 -0.921875,-0.828125 -0.375,-0.21875 -0.867187,-0.328125 -1.46875,-0.328125 -0.867187,0 -1.664063,0.164062 -2.390625,0.484375 -0.71875,0.324219 -1.371094,0.6875 -1.953125,1.09375 L 2.375,-13.046875 c 0.675781,-0.4375 1.503906,-0.859375 2.484375,-1.265625 0.976563,-0.414062 2.054687,-0.625 3.234375,-0.625 1.78125,0 3.066406,0.546875 3.859375,1.640625 0.800781,1.085937 1.203125,2.539063 1.203125,4.359375 V 0 H 11.125 l -0.21875,-1.75 h -0.0625 C 10.144531,-1.164062 9.390625,-0.664062 8.578125,-0.25 7.773438,0.15625 6.925781,0.359375 6.03125,0.359375 4.789062,0.359375 3.765625,0 2.953125,-0.71875 2.148438,-1.4375 1.75,-2.457031 1.75,-3.78125 Z m 2.421875,-0.171875 c 0,0.84375 0.242187,1.445313 0.734375,1.796875 C 5.394531,-1.800781 6,-1.625 6.71875,-1.625 c 0.707031,0 1.367188,-0.160156 1.984375,-0.484375 0.625,-0.332031 1.289063,-0.820313 2,-1.46875 v -4.03125 c -1.21875,0.15625 -2.25,0.34375 -3.09375,0.5625 -0.835937,0.21875 -1.507813,0.480469 -2.015625,0.78125 C 5.082031,-5.960938 4.71875,-5.613281 4.5,-5.21875 4.28125,-4.832031 4.171875,-4.410156 4.171875,-3.953125 Z m 0,0"
       id="path1237" />
  </g>
  <g
     id="use1161"
     transform="translate(34.45022,21.34375)"
     style="fill:#222222;fill-opacity:1"
     clip-path="url(#clipPath847)">
    <path
       d="M 2.453125,0 V -14.5625 H 4.5 l 0.21875,2.625 h 0.078125 c 0.5,-0.914062 1.101563,-1.644531 1.8125,-2.1875 0.707031,-0.539062 1.484375,-0.8125 2.328125,-0.8125 0.570312,0 1.09375,0.105469 1.5625,0.3125 l -0.484375,2.15625 c -0.25,-0.08203 -0.476563,-0.140625 -0.671875,-0.171875 -0.199219,-0.03906 -0.445312,-0.0625 -0.734375,-0.0625 -0.617187,0 -1.261719,0.25 -1.9375,0.75 -0.667969,0.492187 -1.25,1.355469 -1.75,2.59375 V 0 Z m 0,0"
       id="path1241" />
  </g>
  <g
     id="use1163"
     transform="translate(44.84758,21.34375)"
     style="fill:#222222;fill-opacity:1"
     clip-path="url(#clipPath843)">
    <path
       d="m 0.71875,-12.5625 v -1.859375 L 3,-14.5625 3.296875,-18.65625 H 5.375 v 4.09375 h 3.921875 v 2 H 5.375 v 8.09375 c 0,0.898438 0.160156,1.589844 0.484375,2.078125 0.332031,0.492187 0.914063,0.734375 1.75,0.734375 0.269531,0 0.550781,-0.035156 0.84375,-0.109375 0.300781,-0.082031 0.570313,-0.171875 0.8125,-0.265625 L 9.75,-0.171875 C 9.351562,-0.0351562 8.914062,0.0820312 8.4375,0.1875 7.96875,0.300781 7.503906,0.359375 7.046875,0.359375 6.265625,0.359375 5.609375,0.238281 5.078125,0 4.554688,-0.238281 4.128906,-0.566406 3.796875,-0.984375 3.460938,-1.410156 3.226562,-1.921875 3.09375,-2.515625 2.957031,-3.109375 2.890625,-3.769531 2.890625,-4.5 v -8.0625 z m 0,0"
       id="path1245" />
  </g>
  <g
     id="use1165"
     transform="translate(54.9814,21.34375)"
     style="fill:#222222;fill-opacity:1"
     clip-path="url(#clipPath839)">
    <path
       d="m 2,-19.171875 c 0,-0.46875 0.164062,-0.847656 0.5,-1.140625 0.332031,-0.289062 0.738281,-0.4375 1.21875,-0.4375 0.476562,0 0.882812,0.148438 1.21875,0.4375 0.332031,0.292969 0.5,0.671875 0.5,1.140625 0,0.460937 -0.167969,0.84375 -0.5,1.15625 -0.335938,0.304687 -0.742188,0.453125 -1.21875,0.453125 -0.480469,0 -0.886719,-0.148438 -1.21875,-0.453125 -0.335938,-0.3125 -0.5,-0.695313 -0.5,-1.15625 z M 2.453125,0 v -14.5625 h 2.46875 V 0 Z m 0,0"
       id="path1249" />
  </g>
  <g
     id="use1167"
     transform="translate(62.34744,21.34375)"
     style="fill:#222222;fill-opacity:1"
     clip-path="url(#clipPath835)">
    <path
       d="M 2.453125,0 V -14.5625 H 4.5 l 0.21875,2.09375 H 4.796875 C 5.503906,-13.175781 6.238281,-13.765625 7,-14.234375 c 0.769531,-0.46875 1.664062,-0.703125 2.6875,-0.703125 1.539062,0 2.664062,0.484375 3.375,1.453125 0.707031,0.960937 1.0625,2.375 1.0625,4.25 V 0 h -2.453125 v -8.90625 c 0,-1.375 -0.226563,-2.363281 -0.671875,-2.96875 -0.4375,-0.613281 -1.136719,-0.921875 -2.09375,-0.921875 -0.761719,0 -1.433594,0.1875 -2.015625,0.5625 -0.574219,0.375 -1.230469,0.933594 -1.96875,1.671875 V 0 Z m 0,0"
       id="path1253" />
  </g>
  <g
     id="use1169"
     transform="translate(78.74896,21.34375)"
     style="fill:#222222;fill-opacity:1" />
  <g
     id="use1171"
     transform="translate(84.79699,21.34375)"
     style="fill:#222222;fill-opacity:1"
     clip-path="url(#clipPath831)">
    <path
       d="m 2.6875,0 v -19.65625 h 6.15625 c 1,0 1.925781,0.09375 2.78125,0.28125 0.851562,0.179688 1.582031,0.492188 2.1875,0.9375 0.613281,0.4375 1.085938,1.007812 1.421875,1.703125 0.332031,0.699219 0.5,1.558594 0.5,2.578125 0,1.542969 -0.402344,2.773438 -1.203125,3.6875 -0.792969,0.917969 -1.859375,1.546875 -3.203125,1.890625 L 16.3125,0 H 13.5 L 8.75,-8.296875 H 5.1875 V 0 Z m 2.5,-10.34375 h 3.296875 c 1.550781,0 2.734375,-0.3125 3.546875,-0.9375 0.8125,-0.632812 1.21875,-1.59375 1.21875,-2.875 0,-1.300781 -0.414062,-2.207031 -1.234375,-2.71875 -0.8125,-0.519531 -1.992187,-0.78125 -3.53125,-0.78125 H 5.1875 Z m 0,0"
       id="path1259" />
  </g>
  <g
     id="use1175"
     transform="translate(101.91606,21.34375)"
     style="fill:#222222;fill-opacity:1"
     clip-path="url(#clipPath827)">
    <path
       d="m 1.375,-7.265625 c 0,-1.21875 0.179688,-2.300781 0.546875,-3.25 0.375,-0.945313 0.867187,-1.75 1.484375,-2.40625 0.625,-0.65625 1.34375,-1.15625 2.15625,-1.5 0.8125,-0.34375 1.664062,-0.515625 2.5625,-0.515625 0.894531,0 1.75,0.171875 2.5625,0.515625 0.8125,0.34375 1.523438,0.84375 2.140625,1.5 0.625,0.65625 1.117187,1.460937 1.484375,2.40625 0.375,0.949219 0.5625,2.03125 0.5625,3.25 0,1.199219 -0.1875,2.277344 -0.5625,3.234375 -0.367188,0.949219 -0.859375,1.75 -1.484375,2.40625 -0.617187,0.648438 -1.328125,1.140625 -2.140625,1.484375 -0.8125,0.332031 -1.667969,0.5 -2.5625,0.5 -0.898438,0 -1.75,-0.167969 -2.5625,-0.5 C 4.75,-0.484375 4.03125,-0.976562 3.40625,-1.625 2.789062,-2.28125 2.296875,-3.082031 1.921875,-4.03125 1.554688,-4.988281 1.375,-6.066406 1.375,-7.265625 Z m 2.546875,0 c 0,0.84375 0.097656,1.609375 0.296875,2.296875 0.207031,0.679688 0.492188,1.261719 0.859375,1.75 0.375,0.492188 0.820313,0.871094 1.34375,1.140625 0.519531,0.261719 1.085937,0.390625 1.703125,0.390625 0.613281,0 1.179688,-0.128906 1.703125,-0.390625 0.519531,-0.269531 0.96875,-0.648437 1.34375,-1.140625 0.375,-0.488281 0.660156,-1.070312 0.859375,-1.75 0.195312,-0.6875 0.296875,-1.453125 0.296875,-2.296875 0,-0.832031 -0.101563,-1.59375 -0.296875,-2.28125 -0.199219,-0.6875 -0.484375,-1.28125 -0.859375,-1.78125 -0.375,-0.5 -0.824219,-0.882813 -1.34375,-1.15625 -0.523437,-0.28125 -1.089844,-0.421875 -1.703125,-0.421875 -0.617188,0 -1.183594,0.140625 -1.703125,0.421875 -0.523437,0.273437 -0.96875,0.65625 -1.34375,1.15625 -0.367187,0.5 -0.652344,1.09375 -0.859375,1.78125 -0.199219,0.6875 -0.296875,1.449219 -0.296875,2.28125 z m 0,0"
       id="path1263" />
  </g>
  <g
     id="use1179"
     transform="translate(117.74649,21.34375)"
     style="fill:#222222;fill-opacity:1"
     clip-path="url(#clipPath823)">
    <path
       d="m 1.75,-3.78125 c 0,-1.59375 0.710938,-2.8125 2.140625,-3.65625 1.425781,-0.851562 3.695313,-1.453125 6.8125,-1.796875 0,-0.457031 -0.04687,-0.90625 -0.140625,-1.34375 -0.08594,-0.445313 -0.242188,-0.835937 -0.46875,-1.171875 -0.230469,-0.34375 -0.539062,-0.617188 -0.921875,-0.828125 -0.375,-0.21875 -0.867187,-0.328125 -1.46875,-0.328125 -0.867187,0 -1.664063,0.164062 -2.390625,0.484375 -0.71875,0.324219 -1.371094,0.6875 -1.953125,1.09375 L 2.375,-13.046875 c 0.675781,-0.4375 1.503906,-0.859375 2.484375,-1.265625 0.976563,-0.414062 2.054687,-0.625 3.234375,-0.625 1.78125,0 3.066406,0.546875 3.859375,1.640625 0.800781,1.085937 1.203125,2.539063 1.203125,4.359375 V 0 H 11.125 l -0.21875,-1.75 h -0.0625 C 10.144531,-1.164062 9.390625,-0.664062 8.578125,-0.25 7.773438,0.15625 6.925781,0.359375 6.03125,0.359375 4.789062,0.359375 3.765625,0 2.953125,-0.71875 2.148438,-1.4375 1.75,-2.457031 1.75,-3.78125 Z m 2.421875,-0.171875 c 0,0.84375 0.242187,1.445313 0.734375,1.796875 C 5.394531,-1.800781 6,-1.625 6.71875,-1.625 c 0.707031,0 1.367188,-0.160156 1.984375,-0.484375 0.625,-0.332031 1.289063,-0.820313 2,-1.46875 v -4.03125 c -1.21875,0.15625 -2.25,0.34375 -3.09375,0.5625 -0.835937,0.21875 -1.507813,0.480469 -2.015625,0.78125 C 5.082031,-5.960938 4.71875,-5.613281 4.5,-5.21875 4.28125,-4.832031 4.171875,-4.410156 4.171875,-3.953125 Z m 0,0"
       id="path1267" />
  </g>
  <g
     id="use1181"
     transform="translate(133.09359,21.34375)"
     style="fill:#222222;fill-opacity:1" />
  <g
     id="use1183"
     transform="translate(139.14165,21.34375)"
     style="fill:#222222;fill-opacity:1"
     clip-path="url(#clipPath819)">
    <path
       d="M 0,-19.65625 H 2.671875 L 5.8125,-9.046875 c 0.363281,1.179687 0.675781,2.265625 0.9375,3.265625 0.269531,0.992188 0.597656,2.070312 0.984375,3.234375 h 0.125 c 0.363281,-1.164063 0.679687,-2.25 0.953125,-3.25 0.28125,-1 0.59375,-2.082031 0.9375,-3.25 l 3.15625,-10.609375 h 2.546875 L 9.203125,0 h -2.90625 z m 0,0"
       id="path1273" />
  </g>
  <g
     id="use1187"
     transform="translate(154.48879,21.34375)"
     style="fill:#222222;fill-opacity:1"
     clip-path="url(#clipPath815)">
    <path
       d="m 2,-19.171875 c 0,-0.46875 0.164062,-0.847656 0.5,-1.140625 0.332031,-0.289062 0.738281,-0.4375 1.21875,-0.4375 0.476562,0 0.882812,0.148438 1.21875,0.4375 0.332031,0.292969 0.5,0.671875 0.5,1.140625 0,0.460937 -0.167969,0.84375 -0.5,1.15625 -0.335938,0.304687 -0.742188,0.453125 -1.21875,0.453125 -0.480469,0 -0.886719,-0.148438 -1.21875,-0.453125 -0.335938,-0.3125 -0.5,-0.695313 -0.5,-1.15625 z M 2.453125,0 v -14.5625 h 2.46875 V 0 Z m 0,0"
       id="path1277" />
  </g>
  <g
     id="use1189"
     transform="translate(161.85482,21.34375)"
     style="fill:#222222;fill-opacity:1"
     clip-path="url(#clipPath811)">
    <path
       d="m 2.453125,-2.9375 v -18.40625 h 2.46875 V -2.75 c 0,0.398438 0.066406,0.671875 0.203125,0.828125 0.144531,0.15625 0.304688,0.234375 0.484375,0.234375 0.070313,0 0.144531,0 0.21875,0 0.070313,0 0.179687,-0.019531 0.328125,-0.0625 l 0.3125,1.859375 C 6.3125,0.191406 6.125,0.253906 5.90625,0.296875 c -0.21875,0.039063 -0.5,0.0625 -0.84375,0.0625 -0.9375,0 -1.609375,-0.2773438 -2.015625,-0.828125 -0.398437,-0.5625 -0.59375,-1.382812 -0.59375,-2.46875 z m 0,0"
       id="path1281" />
  </g>
  <g
     id="use1191"
     transform="translate(169.4991,21.34375)"
     style="fill:#222222;fill-opacity:1"
     clip-path="url(#clipPath807)">
    <path
       d="m 2.453125,-2.9375 v -18.40625 h 2.46875 V -2.75 c 0,0.398438 0.066406,0.671875 0.203125,0.828125 0.144531,0.15625 0.304688,0.234375 0.484375,0.234375 0.070313,0 0.144531,0 0.21875,0 0.070313,0 0.179687,-0.019531 0.328125,-0.0625 l 0.3125,1.859375 C 6.3125,0.191406 6.125,0.253906 5.90625,0.296875 c -0.21875,0.039063 -0.5,0.0625 -0.84375,0.0625 -0.9375,0 -1.609375,-0.2773438 -2.015625,-0.828125 -0.398437,-0.5625 -0.59375,-1.382812 -0.59375,-2.46875 z m 0,0"
       id="path1285" />
  </g>
  <g
     id="use1193"
     transform="translate(177.14339,21.34375)"
     style="fill:#222222;fill-opacity:1"
     clip-path="url(#clipPath803)">
    <path
       d="m 1.375,-7.265625 c 0,-1.195313 0.179688,-2.269531 0.546875,-3.21875 0.375,-0.945313 0.863281,-1.75 1.46875,-2.40625 0.613281,-0.65625 1.3125,-1.160156 2.09375,-1.515625 0.78125,-0.351562 1.59375,-0.53125 2.4375,-0.53125 0.914063,0 1.738281,0.164062 2.46875,0.484375 0.726563,0.324219 1.335937,0.789063 1.828125,1.390625 0.488281,0.59375 0.863281,1.3125 1.125,2.15625 0.257812,0.84375 0.390625,1.78125 0.390625,2.8125 0,0.53125 -0.03125,0.980469 -0.09375,1.34375 H 3.8125 c 0.09375,1.585938 0.578125,2.835938 1.453125,3.75 0.875,0.917969 2.007813,1.375 3.40625,1.375 0.695313,0 1.335937,-0.101562 1.921875,-0.3125 0.59375,-0.207031 1.160156,-0.476562 1.703125,-0.8125 l 0.859375,1.609375 c -0.636719,0.398437 -1.34375,0.746094 -2.125,1.046875 -0.773438,0.300781 -1.664062,0.453125 -2.671875,0.453125 -0.980469,0 -1.898437,-0.171875 -2.75,-0.515625 -0.84375,-0.351562 -1.585937,-0.851562 -2.21875,-1.5 C 2.765625,-2.3125 2.269531,-3.109375 1.90625,-4.046875 1.550781,-4.992188 1.375,-6.066406 1.375,-7.265625 Z m 2.40625,-1.09375 h 7.796875 c 0,-1.5 -0.320313,-2.644531 -0.953125,-3.4375 -0.625,-0.789063 -1.507812,-1.1875 -2.640625,-1.1875 -0.523437,0 -1.023437,0.105469 -1.5,0.3125 -0.46875,0.210937 -0.898437,0.511719 -1.28125,0.90625 -0.375,0.386719 -0.6875,0.867187 -0.9375,1.4375 -0.25,0.574219 -0.414063,1.230469 -0.484375,1.96875 z m 0,0"
       id="path1289" />
  </g>
  <g
     id="use1195"
     transform="translate(192.00725,21.34375)"
     style="fill:#222222;fill-opacity:1"
     clip-path="url(#clipPath799)">
    <path
       d="M 0.828125,-1.65625 2.0625,-3.296875 c 0.644531,0.523437 1.300781,0.945313 1.96875,1.265625 0.664062,0.324219 1.441406,0.484375 2.328125,0.484375 0.945313,0 1.660156,-0.222656 2.140625,-0.671875 0.488281,-0.445312 0.734375,-0.984375 0.734375,-1.609375 0,-0.382813 -0.101563,-0.710937 -0.296875,-0.984375 C 8.738281,-5.09375 8.484375,-5.335938 8.171875,-5.546875 7.859375,-5.765625 7.5,-5.953125 7.09375,-6.109375 6.695312,-6.273438 6.300781,-6.441406 5.90625,-6.609375 5.382812,-6.773438 4.863281,-6.972656 4.34375,-7.203125 3.832031,-7.429688 3.367188,-7.710938 2.953125,-8.046875 2.546875,-8.378906 2.207031,-8.765625 1.9375,-9.203125 c -0.261719,-0.445313 -0.390625,-0.976563 -0.390625,-1.59375 0,-0.570313 0.113281,-1.113281 0.34375,-1.625 0.238281,-0.507813 0.570313,-0.945313 1,-1.3125 0.4375,-0.375 0.960937,-0.664063 1.578125,-0.875 0.625,-0.21875 1.328125,-0.328125 2.109375,-0.328125 0.914063,0 1.753906,0.164062 2.515625,0.484375 0.769531,0.324219 1.4375,0.714844 2,1.171875 l -1.171875,1.546875 c -0.492187,-0.375 -1.011719,-0.679687 -1.5625,-0.921875 -0.542969,-0.238281 -1.125,-0.359375 -1.75,-0.359375 -0.917969,0 -1.59375,0.214844 -2.03125,0.640625 -0.4375,0.417969 -0.65625,0.90625 -0.65625,1.46875 0,0.34375 0.085937,0.640625 0.265625,0.890625 0.1875,0.25 0.429688,0.46875 0.734375,0.65625 0.300781,0.179687 0.644531,0.34375 1.03125,0.5 0.382813,0.148437 0.785156,0.304687 1.203125,0.46875 0.519531,0.199219 1.046875,0.40625 1.578125,0.625 0.53125,0.21875 1.003906,0.496094 1.421875,0.828125 0.425781,0.335938 0.773438,0.742188 1.046875,1.21875 0.269531,0.480469 0.40625,1.058594 0.40625,1.734375 0,0.59375 -0.121094,1.15625 -0.359375,1.6875 -0.230469,0.523437 -0.570312,0.980469 -1.015625,1.375 C 9.785156,-0.535156 9.222656,-0.226562 8.546875,0 7.878906,0.238281 7.117188,0.359375 6.265625,0.359375 c -1.03125,0 -2.023437,-0.1875 -2.96875,-0.5625 -0.9375,-0.382813 -1.761719,-0.867187 -2.46875,-1.453125 z m 0,0"
       id="path1293" />
  </g>
  <g
     id="use1197"
     transform="translate(204.57198,21.34375)"
     style="fill:#222222;fill-opacity:1"
     clip-path="url(#clipPath795)">
    <path
       d="m 1.375,-7.265625 c 0,-1.21875 0.1875,-2.300781 0.5625,-3.25 0.382812,-0.945313 0.894531,-1.75 1.53125,-2.40625 0.644531,-0.65625 1.390625,-1.15625 2.234375,-1.5 0.851563,-0.34375 1.75,-0.515625 2.6875,-0.515625 0.957031,0 1.78125,0.179688 2.46875,0.53125 0.695313,0.355469 1.296875,0.761719 1.796875,1.21875 l -1.234375,1.578125 c -0.4375,-0.382813 -0.890625,-0.695313 -1.359375,-0.9375 -0.46875,-0.238281 -0.996094,-0.359375 -1.578125,-0.359375 -0.65625,0 -1.265625,0.140625 -1.828125,0.421875 -0.5625,0.273437 -1.046875,0.65625 -1.453125,1.15625 -0.398437,0.5 -0.710937,1.09375 -0.9375,1.78125 -0.230469,0.6875 -0.34375,1.449219 -0.34375,2.28125 0,0.84375 0.109375,1.609375 0.328125,2.296875 0.21875,0.679688 0.519531,1.261719 0.90625,1.75 0.394531,0.492188 0.875,0.871094 1.4375,1.140625 0.5625,0.261719 1.171875,0.390625 1.828125,0.390625 0.695313,0 1.332031,-0.140625 1.90625,-0.421875 0.570313,-0.289063 1.078125,-0.632813 1.515625,-1.03125 l 1.109375,1.625 c -0.65625,0.574219 -1.390625,1.03125 -2.203125,1.375 -0.8125,0.332031 -1.65625,0.5 -2.53125,0.5 -0.960938,0 -1.859375,-0.167969 -2.703125,-0.5 C 4.679688,-0.484375 3.957031,-0.976562 3.34375,-1.625 2.738281,-2.28125 2.257812,-3.082031 1.90625,-4.03125 1.550781,-4.988281 1.375,-6.066406 1.375,-7.265625 Z m 0,0"
       id="path1297" />
  </g>
  <g
     id="use1201"
     transform="translate(217.94216,21.34375)"
     style="fill:#222222;fill-opacity:1"
     clip-path="url(#clipPath791)">
    <path
       d="m 1.75,-3.78125 c 0,-1.59375 0.710938,-2.8125 2.140625,-3.65625 1.425781,-0.851562 3.695313,-1.453125 6.8125,-1.796875 0,-0.457031 -0.04687,-0.90625 -0.140625,-1.34375 -0.08594,-0.445313 -0.242188,-0.835937 -0.46875,-1.171875 -0.230469,-0.34375 -0.539062,-0.617188 -0.921875,-0.828125 -0.375,-0.21875 -0.867187,-0.328125 -1.46875,-0.328125 -0.867187,0 -1.664063,0.164062 -2.390625,0.484375 -0.71875,0.324219 -1.371094,0.6875 -1.953125,1.09375 L 2.375,-13.046875 c 0.675781,-0.4375 1.503906,-0.859375 2.484375,-1.265625 0.976563,-0.414062 2.054687,-0.625 3.234375,-0.625 1.78125,0 3.066406,0.546875 3.859375,1.640625 0.800781,1.085937 1.203125,2.539063 1.203125,4.359375 V 0 H 11.125 l -0.21875,-1.75 h -0.0625 C 10.144531,-1.164062 9.390625,-0.664062 8.578125,-0.25 7.773438,0.15625 6.925781,0.359375 6.03125,0.359375 4.789062,0.359375 3.765625,0 2.953125,-0.71875 2.148438,-1.4375 1.75,-2.457031 1.75,-3.78125 Z m 2.421875,-0.171875 c 0,0.84375 0.242187,1.445313 0.734375,1.796875 C 5.394531,-1.800781 6,-1.625 6.71875,-1.625 c 0.707031,0 1.367188,-0.160156 1.984375,-0.484375 0.625,-0.332031 1.289063,-0.820313 2,-1.46875 v -4.03125 c -1.21875,0.15625 -2.25,0.34375 -3.09375,0.5625 -0.835937,0.21875 -1.507813,0.480469 -2.015625,0.78125 C 5.082031,-5.960938 4.71875,-5.613281 4.5,-5.21875 4.28125,-4.832031 4.171875,-4.410156 4.171875,-3.953125 Z m 0,0"
       id="path1301" />
  </g>
  <g
     id="use1203"
     transform="translate(233.28926,21.34375)"
     style="fill:#222222;fill-opacity:1"
     clip-path="url(#clipPath787)">
    <path
       d="M 0.828125,-1.65625 2.0625,-3.296875 c 0.644531,0.523437 1.300781,0.945313 1.96875,1.265625 0.664062,0.324219 1.441406,0.484375 2.328125,0.484375 0.945313,0 1.660156,-0.222656 2.140625,-0.671875 0.488281,-0.445312 0.734375,-0.984375 0.734375,-1.609375 0,-0.382813 -0.101563,-0.710937 -0.296875,-0.984375 C 8.738281,-5.09375 8.484375,-5.335938 8.171875,-5.546875 7.859375,-5.765625 7.5,-5.953125 7.09375,-6.109375 6.695312,-6.273438 6.300781,-6.441406 5.90625,-6.609375 5.382812,-6.773438 4.863281,-6.972656 4.34375,-7.203125 3.832031,-7.429688 3.367188,-7.710938 2.953125,-8.046875 2.546875,-8.378906 2.207031,-8.765625 1.9375,-9.203125 c -0.261719,-0.445313 -0.390625,-0.976563 -0.390625,-1.59375 0,-0.570313 0.113281,-1.113281 0.34375,-1.625 0.238281,-0.507813 0.570313,-0.945313 1,-1.3125 0.4375,-0.375 0.960937,-0.664063 1.578125,-0.875 0.625,-0.21875 1.328125,-0.328125 2.109375,-0.328125 0.914063,0 1.753906,0.164062 2.515625,0.484375 0.769531,0.324219 1.4375,0.714844 2,1.171875 l -1.171875,1.546875 c -0.492187,-0.375 -1.011719,-0.679687 -1.5625,-0.921875 -0.542969,-0.238281 -1.125,-0.359375 -1.75,-0.359375 -0.917969,0 -1.59375,0.214844 -2.03125,0.640625 -0.4375,0.417969 -0.65625,0.90625 -0.65625,1.46875 0,0.34375 0.085937,0.640625 0.265625,0.890625 0.1875,0.25 0.429688,0.46875 0.734375,0.65625 0.300781,0.179687 0.644531,0.34375 1.03125,0.5 0.382813,0.148437 0.785156,0.304687 1.203125,0.46875 0.519531,0.199219 1.046875,0.40625 1.578125,0.625 0.53125,0.21875 1.003906,0.496094 1.421875,0.828125 0.425781,0.335938 0.773438,0.742188 1.046875,1.21875 0.269531,0.480469 0.40625,1.058594 0.40625,1.734375 0,0.59375 -0.121094,1.15625 -0.359375,1.6875 -0.230469,0.523437 -0.570312,0.980469 -1.015625,1.375 C 9.785156,-0.535156 9.222656,-0.226562 8.546875,0 7.878906,0.238281 7.117188,0.359375 6.265625,0.359375 c -1.03125,0 -2.023437,-0.1875 -2.96875,-0.5625 -0.9375,-0.382813 -1.761719,-0.867187 -2.46875,-1.453125 z m 0,0"
       id="path1305" />
  </g>
</svg>
