<?xml version="1.0" encoding="UTF-8" standalone="no"?>
<!-- Generator: Adobe Illustrator 19.2.1, SVG Export Plug-In . SVG Version: 6.00 Build 0)  -->

<svg
   version="1.1"
   id="layer"
   x="0px"
   y="0px"
   viewBox="0 0 600 124.6"
   xml:space="preserve"
   sodipodi:docname="tue-vector-logo.svg"
   width="600"
   height="124.6"
   inkscape:version="1.1.2 (0a00cf5339, 2022-02-04, custom)"
   xmlns:inkscape="http://www.inkscape.org/namespaces/inkscape"
   xmlns:sodipodi="http://sodipodi.sourceforge.net/DTD/sodipodi-0.dtd"
   xmlns="http://www.w3.org/2000/svg"
   xmlns:svg="http://www.w3.org/2000/svg"><defs
   id="defs77" /><sodipodi:namedview
   id="namedview75"
   pagecolor="#ffffff"
   bordercolor="#666666"
   borderopacity="1.0"
   inkscape:pageshadow="2"
   inkscape:pageopacity="0.0"
   inkscape:pagecheckerboard="0"
   showgrid="false"
   inkscape:zoom="1.1150307"
   inkscape:cx="304.02751"
   inkscape:cy="66.814305"
   inkscape:window-width="1920"
   inkscape:window-height="1060"
   inkscape:window-x="0"
   inkscape:window-y="20"
   inkscape:window-maximized="1"
   inkscape:current-layer="layer" />
<style
   type="text/css"
   id="style2">
	.st0{fill:#CA101A;}
</style>
<polygon
   class="st0"
   points="380,267.1 380,271.8 369.8,271.8 369.8,276.2 379.5,276.2 379.5,280.7 369.8,280.7 369.8,285.6 380.6,285.6 380.6,290.4 364.4,290.4 364.4,267.1 "
   id="polygon4"
   transform="translate(-21.8,-259.2)" />
<rect
   x="363.40002"
   y="7.9000063"
   class="st0"
   width="5.6999998"
   height="23.299999"
   id="rect6" />
<polygon
   class="st0"
   points="401.6,275.1 401.8,290.4 396.3,290.4 396.3,267.1 402.7,267.1 412.1,282.3 412.2,282.3 412,267.1 417.5,267.1 417.5,290.4 411.1,290.4 401.7,275.1 "
   id="polygon8"
   transform="translate(-21.8,-259.2)" />
<path
   class="st0"
   d="m 422.9,19.5 c 0,2 -0.4,3.8 -1.1,5.3 -0.8,1.5 -1.8,2.7 -3,3.7 -1.2,1 -2.6,1.7 -4.2,2.1 -1.6,0.4 -3.1,0.7 -4.7,0.7 h -8.7 V 8 h 8.4 c 1.7,0 3.3,0.2 4.9,0.6 1.6,0.4 3,1 4.3,1.9 1.3,0.9 2.3,2.1 3,3.6 0.7,1.3 1.1,3.2 1.1,5.4 m -5.8,0 c 0,-1.3 -0.2,-2.4 -0.6,-3.3 -0.4,-0.9 -1,-1.6 -1.7,-2.1 -0.7,-0.5 -1.5,-0.9 -2.4,-1.1 -0.9,-0.2 -1.9,-0.3 -2.8,-0.3 h -2.8 v 13.6 h 2.7 c 1,0 2,-0.1 2.9,-0.4 0.9,-0.2 1.8,-0.6 2.5,-1.1 0.7,-0.5 1.3,-1.2 1.7,-2.1 0.2,-0.9 0.5,-1.9 0.5,-3.2"
   id="path10" />
<polygon
   class="st0"
   points="454.6,280.6 454.6,290.4 448.9,290.4 448.9,267.1 454.6,267.1 454.6,275.9 463.7,275.9 463.7,267.1 469.3,267.1 469.3,290.4 463.7,290.4 463.7,280.6 "
   id="polygon12"
   transform="translate(-21.8,-259.2)" />
<path
   class="st0"
   d="m 477.2,19.4 c 0,1.8 -0.3,3.5 -1,5.1 -0.6,1.5 -1.5,2.8 -2.7,3.9 -1.1,1.1 -2.5,1.9 -4,2.5 -1.6,0.6 -3.3,0.9 -5.1,0.9 -1.8,0 -3.5,-0.3 -5.1,-0.9 -1.5,-0.6 -2.9,-1.4 -4,-2.5 -1.1,-1.1 -2,-2.4 -2.7,-3.9 -0.6,-1.5 -1,-3.2 -1,-5.1 0,-1.9 0.3,-3.5 1,-5.1 0.6,-1.5 1.5,-2.8 2.7,-3.8 1.1,-1.1 2.5,-1.9 4,-2.4 1.6,-0.6 3.2,-0.9 5.1,-0.9 1.8,0 3.5,0.3 5.1,0.9 1.6,0.6 2.9,1.4 4,2.4 1.1,1.1 2,2.3 2.7,3.8 0.7,1.6 1,3.3 1,5.1 m -6,0 c 0,-1 -0.2,-2 -0.5,-2.8 -0.3,-0.9 -0.8,-1.6 -1.4,-2.3 -0.6,-0.6 -1.3,-1.1 -2.1,-1.5 -0.8,-0.4 -1.7,-0.5 -2.7,-0.5 -1,0 -1.9,0.2 -2.7,0.5 -0.8,0.4 -1.5,0.9 -2.1,1.5 -0.6,0.6 -1,1.4 -1.4,2.3 -0.3,0.9 -0.5,1.8 -0.5,2.8 0,1.1 0.2,2 0.5,2.9 0.3,0.9 0.8,1.7 1.4,2.3 0.6,0.6 1.3,1.1 2.1,1.5 0.8,0.4 1.7,0.5 2.7,0.5 1,0 1.9,-0.2 2.7,-0.5 0.8,-0.4 1.5,-0.9 2.1,-1.5 0.6,-0.6 1.1,-1.4 1.4,-2.3 0.3,-0.8 0.5,-1.8 0.5,-2.9"
   id="path14" />
<polygon
   class="st0"
   points="499.6,267.1 505.9,267.1 511.3,283.6 511.4,283.6 516.8,267.1 523,267.1 514,290.4 508.4,290.4 "
   id="polygon16"
   transform="translate(-21.8,-259.2)" />
<polygon
   class="st0"
   points="541.4,267.1 541.4,271.8 531.2,271.8 531.2,276.2 540.8,276.2 540.8,280.7 531.2,280.7 531.2,285.6 542,285.6 542,290.4 525.7,290.4 525.7,267.1 "
   id="polygon18"
   transform="translate(-21.8,-259.2)" />
<polygon
   class="st0"
   points="551.9,275.1 552,290.4 546.5,290.4 546.5,267.1 553,267.1 562.3,282.3 562.4,282.3 562.3,267.1 567.8,267.1 567.8,290.4 561.4,290.4 552,275.1 "
   id="polygon20"
   transform="translate(-21.8,-259.2)" />
<polygon
   class="st0"
   points="370.9,368.2 370.9,349.7 364.4,349.7 364.4,344.9 383.2,344.9 383.2,349.7 376.6,349.7 376.6,368.2 "
   id="polygon22"
   transform="translate(-21.8,-259.2)" />
<polygon
   class="st0"
   points="401.9,344.9 401.9,349.7 391.6,349.7 391.6,354.1 401.3,354.1 401.3,358.6 391.6,358.6 391.6,363.4 402.5,363.4 402.5,368.2 386.2,368.2 386.2,344.9 "
   id="polygon24"
   transform="translate(-21.8,-259.2)" />
<path
   class="st0"
   d="m 401.5,108.6 c -1.5,0.7 -3.3,1 -5.2,1 -1.8,0 -3.5,-0.3 -5,-0.9 -1.5,-0.6 -2.8,-1.4 -4,-2.5 -1.1,-1.1 -2,-2.4 -2.6,-3.9 -0.6,-1.5 -1,-3.2 -1,-5 0,-1.9 0.3,-3.6 1,-5.1 0.7,-1.5 1.5,-2.8 2.7,-3.9 1.1,-1.1 2.5,-1.9 4,-2.5 1.5,-0.6 3.2,-0.9 5,-0.9 1.7,0 3.3,0.3 4.9,0.9 1.6,0.6 2.9,1.4 3.9,2.6 l -3.8,3.8 c -0.5,-0.7 -1.2,-1.3 -2.1,-1.6 -0.9,-0.4 -1.7,-0.5 -2.6,-0.5 -1,0 -1.9,0.2 -2.7,0.5 -0.8,0.4 -1.5,0.9 -2.1,1.5 -0.6,0.6 -1.1,1.4 -1.4,2.3 -0.3,0.9 -0.5,1.8 -0.5,2.8 0,1.1 0.2,2 0.5,2.9 0.3,0.9 0.8,1.6 1.4,2.3 0.6,0.6 1.3,1.1 2.1,1.5 0.8,0.4 1.7,0.5 2.7,0.5 1.1,0 2.1,-0.2 2.9,-0.7 0.8,-0.4 1.5,-1 2,-1.7 l 3.9,3.7 c -1.2,1.3 -2.5,2.2 -4,2.9"
   id="path26" />
<polygon
   class="st0"
   points="435.7,358.5 435.7,368.2 430.1,368.2 430.1,344.9 435.7,344.9 435.7,353.7 444.8,353.7 444.8,344.9 450.5,344.9 450.5,368.2 444.8,368.2 444.8,358.5 "
   id="polygon28"
   transform="translate(-21.8,-259.2)" />
<polygon
   class="st0"
   points="461.3,353 461.4,368.2 455.9,368.2 455.9,344.9 462.3,344.9 471.7,360.1 471.8,360.1 471.7,344.9 477.1,344.9 477.1,368.2 470.7,368.2 461.3,353 "
   id="polygon30"
   transform="translate(-21.8,-259.2)" />
<path
   class="st0"
   d="m 485,97.3 c 0,1.8 -0.3,3.5 -1,5.1 -0.6,1.5 -1.5,2.8 -2.7,3.9 -1.1,1.1 -2.5,1.9 -4,2.5 -1.6,0.6 -3.3,0.9 -5.1,0.9 -1.8,0 -3.5,-0.3 -5.1,-0.9 -1.5,-0.6 -2.9,-1.4 -4,-2.5 -1.1,-1.1 -2,-2.4 -2.7,-3.9 -0.6,-1.5 -1,-3.2 -1,-5.1 0,-1.9 0.3,-3.5 1,-5.1 0.6,-1.5 1.5,-2.8 2.7,-3.8 1.1,-1.1 2.5,-1.9 4,-2.4 1.6,-0.6 3.2,-0.9 5.1,-0.9 1.8,0 3.5,0.3 5.1,0.9 1.6,0.6 2.9,1.4 4,2.4 1.1,1.1 2,2.3 2.7,3.8 0.7,1.5 1,3.2 1,5.1 m -6,0 c 0,-1 -0.2,-2 -0.5,-2.8 -0.3,-0.9 -0.8,-1.6 -1.4,-2.3 -0.6,-0.6 -1.3,-1.1 -2.1,-1.5 -0.8,-0.4 -1.7,-0.5 -2.7,-0.5 -1,0 -1.9,0.2 -2.7,0.5 -0.8,0.4 -1.5,0.9 -2.1,1.5 -0.6,0.6 -1,1.4 -1.4,2.3 -0.3,0.9 -0.5,1.8 -0.5,2.8 0,1.1 0.2,2 0.5,2.9 0.3,0.9 0.8,1.7 1.4,2.3 0.6,0.6 1.3,1.1 2.1,1.5 0.8,0.4 1.7,0.5 2.7,0.5 1,0 1.9,-0.2 2.7,-0.5 0.8,-0.4 1.5,-0.9 2.1,-1.5 0.6,-0.6 1.1,-1.4 1.4,-2.3 0.3,-0.9 0.5,-1.9 0.5,-2.9"
   id="path32" />
<polygon
   class="st0"
   points="516.7,344.9 516.7,363.3 525.8,363.3 525.8,368.2 511.1,368.2 511.1,344.9 "
   id="polygon34"
   transform="translate(-21.8,-259.2)" />
<path
   class="st0"
   d="m 531.1,97.3 c 0,1.8 -0.3,3.5 -1,5.1 -0.6,1.5 -1.5,2.8 -2.7,3.9 -1.1,1.1 -2.5,1.9 -4,2.5 -1.6,0.6 -3.3,0.9 -5.1,0.9 -1.8,0 -3.5,-0.3 -5.1,-0.9 -1.6,-0.6 -2.9,-1.4 -4,-2.5 -1.1,-1.1 -2,-2.4 -2.7,-3.9 -0.6,-1.5 -0.9,-3.2 -0.9,-5.1 0,-1.9 0.3,-3.5 0.9,-5.1 0.6,-1.5 1.5,-2.8 2.7,-3.8 1.1,-1.1 2.5,-1.9 4,-2.4 1.5,-0.6 3.2,-0.9 5.1,-0.9 1.8,0 3.5,0.3 5.1,0.9 1.6,0.6 2.9,1.4 4,2.4 1.1,1.1 2,2.3 2.7,3.8 0.6,1.5 1,3.2 1,5.1 m -6.1,0 c 0,-1 -0.2,-2 -0.5,-2.8 -0.3,-0.9 -0.8,-1.6 -1.4,-2.3 -0.6,-0.6 -1.3,-1.1 -2.1,-1.5 -0.8,-0.4 -1.7,-0.5 -2.7,-0.5 -1,0 -1.9,0.2 -2.7,0.5 -0.8,0.4 -1.5,0.9 -2.1,1.5 -0.6,0.6 -1.1,1.4 -1.4,2.3 -0.3,0.9 -0.5,1.8 -0.5,2.8 0,1.1 0.2,2 0.5,2.9 0.3,0.9 0.8,1.7 1.4,2.3 0.6,0.6 1.3,1.1 2.1,1.5 0.8,0.4 1.7,0.5 2.7,0.5 1,0 1.9,-0.2 2.7,-0.5 0.8,-0.4 1.5,-0.9 2.1,-1.5 0.6,-0.6 1.1,-1.4 1.4,-2.3 0.4,-0.9 0.5,-1.9 0.5,-2.9"
   id="path36" />
<path
   class="st0"
   d="m 551.9,109.1 c -1.5,0.4 -3.2,0.6 -5,0.6 -1.9,0 -3.6,-0.3 -5.2,-0.9 -1.6,-0.6 -2.9,-1.4 -4.1,-2.5 -1.1,-1.1 -2,-2.4 -2.6,-3.9 -0.6,-1.5 -1,-3.2 -1,-5 0,-1.9 0.3,-3.6 1,-5.1 0.7,-1.5 1.5,-2.8 2.7,-3.9 1.1,-1.1 2.5,-1.9 4,-2.5 1.5,-0.6 3.2,-0.9 5,-0.9 1.8,0 3.6,0.3 5.1,0.8 1.6,0.6 2.9,1.3 3.9,2.3 l -3.6,4 c -0.6,-0.6 -1.3,-1.2 -2.2,-1.6 -0.9,-0.4 -1.9,-0.6 -3.1,-0.6 -1,0 -1.9,0.2 -2.7,0.5 -0.8,0.4 -1.6,0.9 -2.2,1.5 -0.6,0.7 -1.1,1.4 -1.4,2.3 -0.3,0.9 -0.5,1.9 -0.5,2.9 0,1.1 0.2,2.1 0.5,3 0.3,0.9 0.8,1.7 1.4,2.3 0.6,0.6 1.3,1.2 2.2,1.5 0.9,0.4 1.9,0.5 3.1,0.5 0.7,0 1.3,0 1.9,-0.2 0.6,-0.1 1.1,-0.3 1.7,-0.5 v -3.9 h -4.4 v -4.5 h 9.6 v 12.3 c -1.2,0.6 -2.6,1.1 -4.1,1.5"
   id="path38" />
<polygon
   class="st0"
   points="588.3,368.2 588.3,358.4 579.5,344.9 586.3,344.9 591.3,353.5 596.3,344.9 602.9,344.9 593.9,358.4 593.9,368.2 "
   id="polygon40"
   transform="translate(-21.8,-259.2)" />
<path
   class="st0"
   d="m 361.9,65.1 c -0.5,1.2 -1.1,2.1 -2,3 -0.9,0.8 -1.9,1.5 -3.2,1.9 -1.2,0.5 -2.6,0.7 -4.1,0.7 -1.5,0 -2.9,-0.2 -4.2,-0.7 -1.2,-0.5 -2.3,-1.1 -3.1,-1.9 -0.9,-0.8 -1.5,-1.8 -2,-3 -0.5,-1.2 -0.7,-2.4 -0.7,-3.8 V 46.8 h 5.6 v 14 c 0,0.6 0.1,1.2 0.2,1.8 0.2,0.6 0.4,1.1 0.8,1.5 0.3,0.4 0.8,0.8 1.4,1.1 0.6,0.3 1.2,0.4 2,0.4 0.8,0 1.5,-0.1 2,-0.4 0.6,-0.3 1,-0.6 1.4,-1.1 0.4,-0.4 0.6,-1 0.8,-1.5 0.2,-0.6 0.2,-1.2 0.2,-1.8 v -14 h 5.6 v 14.5 c 0,1.4 -0.3,2.7 -0.7,3.8"
   id="path42" />
<polygon
   class="st0"
   points="394.9,314.1 395.1,329.3 389.6,329.3 389.6,306 396,306 405.4,321.2 405.5,321.2 405.4,306 410.8,306 410.8,329.3 404.4,329.3 395,314.1 "
   id="polygon44"
   transform="translate(-21.8,-259.2)" />
<rect
   x="394.40002"
   y="46.799999"
   class="st0"
   width="5.6999998"
   height="23.299999"
   id="rect46" />
<polygon
   class="st0"
   points="424.6,306 430.9,306 436.3,322.5 436.5,322.5 441.8,306 448.1,306 439.1,329.3 433.4,329.3 "
   id="polygon48"
   transform="translate(-21.8,-259.2)" />
<polygon
   class="st0"
   points="466.4,306 466.4,310.7 456.2,310.7 456.2,315.1 465.9,315.1 465.9,319.7 456.2,319.7 456.2,324.5 467,324.5 467,329.3 450.8,329.3 450.8,306 "
   id="polygon50"
   transform="translate(-21.8,-259.2)" />
<path
   class="st0"
   d="m 462.3,70.1 -5.1,-9.2 h -1.9 v 9.2 h -5.5 V 46.8 h 8.9 c 1.1,0 2.2,0.1 3.3,0.3 1.1,0.2 2,0.6 2.9,1.2 0.8,0.6 1.5,1.3 2,2.2 0.5,0.9 0.8,2 0.8,3.4 0,1.6 -0.4,2.9 -1.3,4 -0.9,1.1 -2,1.8 -3.6,2.3 l 6.1,10 h -6.6 z M 462,53.9 c 0,-0.5 -0.1,-1 -0.4,-1.3 -0.2,-0.3 -0.5,-0.6 -0.9,-0.8 -0.4,-0.2 -0.8,-0.3 -1.2,-0.4 -0.4,-0.1 -0.9,-0.1 -1.3,-0.1 h -3 v 5.4 h 2.7 c 0.5,0 0.9,0 1.4,-0.1 0.5,-0.1 0.9,-0.2 1.3,-0.4 0.4,-0.2 0.7,-0.5 1,-0.9 0.3,-0.3 0.4,-0.8 0.4,-1.4"
   id="path52" />
<path
   class="st0"
   d="m 484.6,52.9 c -0.5,-0.6 -1.1,-1.1 -1.9,-1.5 -0.8,-0.4 -1.5,-0.5 -2.3,-0.5 -0.4,0 -0.8,0 -1.1,0.1 -0.4,0.1 -0.7,0.2 -1,0.4 -0.3,0.2 -0.6,0.4 -0.8,0.7 -0.2,0.3 -0.3,0.7 -0.3,1.1 0,0.4 0.1,0.7 0.2,1 0.2,0.3 0.4,0.5 0.7,0.7 0.3,0.2 0.7,0.4 1.1,0.5 0.4,0.2 0.9,0.3 1.5,0.5 0.8,0.3 1.6,0.6 2.5,0.9 0.9,0.3 1.6,0.7 2.3,1.3 0.7,0.5 1.3,1.2 1.7,2 0.5,0.8 0.7,1.7 0.7,2.9 0,1.3 -0.2,2.5 -0.7,3.5 -0.5,1 -1.2,1.8 -2,2.4 -0.8,0.6 -1.8,1.1 -2.9,1.4 -1.1,0.3 -2.2,0.5 -3.3,0.5 -1.7,0 -3.3,-0.3 -4.8,-0.9 -1.6,-0.6 -2.9,-1.4 -3.9,-2.5 l 3.7,-3.8 c 0.6,0.7 1.3,1.3 2.3,1.8 0.9,0.5 1.9,0.7 2.8,0.7 0.4,0 0.8,0 1.2,-0.1 0.4,-0.1 0.7,-0.2 1,-0.4 0.3,-0.2 0.5,-0.5 0.7,-0.8 0.2,-0.3 0.3,-0.7 0.3,-1.2 0,-0.4 -0.1,-0.8 -0.3,-1.1 -0.2,-0.3 -0.5,-0.6 -0.9,-0.8 -0.4,-0.3 -0.9,-0.5 -1.5,-0.7 -0.6,-0.2 -1.3,-0.4 -2.1,-0.7 -0.7,-0.2 -1.5,-0.5 -2.2,-0.9 -0.7,-0.3 -1.3,-0.8 -1.9,-1.3 -0.6,-0.5 -1,-1.1 -1.4,-1.9 -0.3,-0.7 -0.5,-1.6 -0.5,-2.7 0,-1.3 0.3,-2.4 0.8,-3.3 0.5,-0.9 1.2,-1.7 2.1,-2.3 0.9,-0.6 1.8,-1 2.9,-1.3 1.1,-0.3 2.2,-0.4 3.3,-0.4 1.3,0 2.7,0.2 4,0.7 1.4,0.5 2.6,1.2 3.6,2.1 z"
   id="path54" />
<rect
   x="492.29999"
   y="46.799999"
   class="st0"
   width="5.6999998"
   height="23.299999"
   id="rect56" />
<polygon
   class="st0"
   points="529.4,329.3 529.4,310.8 522.8,310.8 522.8,306 541.6,306 541.6,310.8 535,310.8 535,329.3 "
   id="polygon58"
   transform="translate(-21.8,-259.2)" />
<polygon
   class="st0"
   points="551.9,329.3 551.9,319.4 543.2,306 550,306 555,314.6 560,306 566.5,306 557.6,319.4 557.6,329.3 "
   id="polygon60"
   transform="translate(-21.8,-259.2)" />
<path
   class="st0"
   d="m 580.4,58.4 c 0,1.8 -0.3,3.5 -1,5.1 -0.6,1.5 -1.5,2.8 -2.7,3.9 -1.1,1.1 -2.5,1.9 -4,2.5 -1.6,0.6 -3.3,0.9 -5.1,0.9 -1.8,0 -3.5,-0.3 -5.1,-0.9 -1.5,-0.6 -2.9,-1.4 -4,-2.5 -1.1,-1.1 -2,-2.4 -2.7,-3.9 -0.6,-1.5 -0.9,-3.2 -0.9,-5.1 0,-1.9 0.3,-3.5 0.9,-5.1 0.6,-1.5 1.5,-2.8 2.7,-3.8 1.1,-1.1 2.5,-1.9 4,-2.4 1.5,-0.6 3.2,-0.9 5.1,-0.9 1.8,0 3.5,0.3 5.1,0.9 1.6,0.6 2.9,1.4 4,2.4 1.1,1.1 2,2.3 2.7,3.8 0.6,1.5 1,3.2 1,5.1 m -6.1,0 c 0,-1 -0.2,-2 -0.5,-2.8 -0.3,-0.9 -0.8,-1.6 -1.4,-2.3 -0.6,-0.6 -1.3,-1.1 -2.1,-1.5 -0.8,-0.4 -1.7,-0.5 -2.7,-0.5 -1,0 -1.9,0.2 -2.7,0.5 -0.8,0.4 -1.5,0.9 -2.1,1.5 -0.6,0.6 -1.1,1.4 -1.4,2.3 -0.3,0.9 -0.5,1.8 -0.5,2.8 0,1.1 0.2,2 0.5,2.9 0.3,0.9 0.8,1.7 1.4,2.3 0.6,0.6 1.3,1.1 2.1,1.5 0.8,0.4 1.7,0.5 2.7,0.5 1,0 1.9,-0.2 2.7,-0.5 0.8,-0.4 1.5,-0.9 2.1,-1.5 0.6,-0.6 1.1,-1.4 1.4,-2.3 0.4,-0.9 0.5,-1.9 0.5,-2.9"
   id="path62" />
<polygon
   class="st0"
   points="621,315.6 621,320.2 612,320.2 612,329.3 606.4,329.3 606.4,306 621.8,306 621.8,310.8 612,310.8 612,315.6 "
   id="polygon64"
   transform="translate(-21.8,-259.2)" />
<polygon
   class="st0"
   points="51.1,368.2 51.1,287.9 21.8,287.9 21.8,267 105.5,267 105.5,287.9 76.2,287.9 76.2,368.2 "
   id="polygon66"
   transform="translate(-21.8,-259.2)" />
<path
   class="st0"
   d="m 179.3,87.5 c -2.1,5 -5.1,9.3 -9,12.9 -3.9,3.6 -8.6,6.4 -14.2,8.4 -5.5,2 -11.7,3 -18.4,3 -6.8,0 -13,-1 -18.5,-3 -5.5,-2 -10.1,-4.8 -13.9,-8.4 -3.8,-3.6 -6.7,-7.9 -8.8,-12.9 -2.1,-5 -3.1,-10.6 -3.1,-16.7 v -63 h 24.9 v 61 c 0,2.8 0.4,5.4 1.1,7.9 0.7,2.5 1.9,4.7 3.4,6.6 1.5,2 3.5,3.5 6,4.6 2.5,1.1 5.5,1.7 9,1.7 3.5,0 6.5,-0.6 9,-1.7 2.5,-1.1 4.5,-2.7 6.1,-4.6 1.6,-2 2.7,-4.2 3.4,-6.6 0.7,-2.5 1,-5.1 1,-7.9 v -61 h 25.1 v 63 c 0,6.2 -1,11.7 -3.1,16.7"
   id="path68" />
<polygon
   class="st0"
   points="252.4,259.2 201.6,383.8 219.7,383.8 270.6,259.2 "
   id="polygon70"
   transform="translate(-21.8,-259.2)" />
<path
   class="st0"
   d="m 273.5,36 c -20.9,0 -37.9,17 -37.9,37.9 0,20.9 17,37.9 37.9,37.9 13.4,0 27.1,-5.9 34.6,-16.5 l -17.2,-7 c -4.6,5.1 -10.8,7.1 -17.4,7.1 -9.6,0 -17.8,-6.3 -20.5,-15.1 h 57.8 c 0.4,-2.1 0.6,-4.2 0.6,-6.4 0,-21 -17,-37.9 -37.9,-37.9 m 0,16.3 c 9,0 16.7,5.5 19.9,13.3 h -39.8 c 3.2,-7.7 10.9,-13.3 19.9,-13.3"
   id="path72" />
</svg>
