<?xml version="1.0" encoding="UTF-8" standalone="no"?>
<!-- Generator: Adobe Illustrator 19.2.1, SVG Export Plug-In . SVG Version: 6.00 Build 0)  -->

<svg
   version="1.1"
   id="layer"
   x="0px"
   y="0px"
   viewBox="0 0 311.39999 124.6"
   xml:space="preserve"
   sodipodi:docname="tue-logo-short.svg"
   width="311.39999"
   height="124.6"
   inkscape:version="1.1.2 (0a00cf5339, 2022-02-04, custom)"
   xmlns:inkscape="http://www.inkscape.org/namespaces/inkscape"
   xmlns:sodipodi="http://sodipodi.sourceforge.net/DTD/sodipodi-0.dtd"
   xmlns="http://www.w3.org/2000/svg"
   xmlns:svg="http://www.w3.org/2000/svg"><defs
   id="defs77" /><sodipodi:namedview
   id="namedview75"
   pagecolor="#ffffff"
   bordercolor="#666666"
   borderopacity="1.0"
   inkscape:pageshadow="2"
   inkscape:pageopacity="0.0"
   inkscape:pagecheckerboard="0"
   showgrid="false"
   inkscape:zoom="1.1150307"
   inkscape:cx="304.0275"
   inkscape:cy="66.814304"
   inkscape:window-width="1920"
   inkscape:window-height="1060"
   inkscape:window-x="0"
   inkscape:window-y="20"
   inkscape:window-maximized="1"
   inkscape:current-layer="layer" />
<style
   type="text/css"
   id="style2">
	.st0{fill:#CA101A;}
</style>































<polygon
   class="st0"
   points="21.8,287.9 21.8,267 105.5,267 105.5,287.9 76.2,287.9 76.2,368.2 51.1,368.2 51.1,287.9 "
   id="polygon66"
   transform="translate(-21.8,-259.2)" />
<path
   class="st0"
   d="m 179.3,87.5 c -2.1,5 -5.1,9.3 -9,12.9 -3.9,3.6 -8.6,6.4 -14.2,8.4 -5.5,2 -11.7,3 -18.4,3 -6.8,0 -13,-1 -18.5,-3 -5.5,-2 -10.1,-4.8 -13.9,-8.4 -3.8,-3.6 -6.7,-7.9 -8.8,-12.9 -2.1,-5 -3.1,-10.6 -3.1,-16.7 v -63 h 24.9 v 61 c 0,2.8 0.4,5.4 1.1,7.9 0.7,2.5 1.9,4.7 3.4,6.6 1.5,2 3.5,3.5 6,4.6 2.5,1.1 5.5,1.7 9,1.7 3.5,0 6.5,-0.6 9,-1.7 2.5,-1.1 4.5,-2.7 6.1,-4.6 1.6,-2 2.7,-4.2 3.4,-6.6 0.7,-2.5 1,-5.1 1,-7.9 v -61 h 25.1 v 63 c 0,6.2 -1,11.7 -3.1,16.7"
   id="path68" />
<polygon
   class="st0"
   points="219.7,383.8 270.6,259.2 252.4,259.2 201.6,383.8 "
   id="polygon70"
   transform="translate(-21.8,-259.2)" />
<path
   class="st0"
   d="m 273.5,36 c -20.9,0 -37.9,17 -37.9,37.9 0,20.9 17,37.9 37.9,37.9 13.4,0 27.1,-5.9 34.6,-16.5 l -17.2,-7 c -4.6,5.1 -10.8,7.1 -17.4,7.1 -9.6,0 -17.8,-6.3 -20.5,-15.1 h 57.8 c 0.4,-2.1 0.6,-4.2 0.6,-6.4 0,-21 -17,-37.9 -37.9,-37.9 m 0,16.3 c 9,0 16.7,5.5 19.9,13.3 h -39.8 c 3.2,-7.7 10.9,-13.3 19.9,-13.3"
   id="path72" />
</svg>
